<?xml version="1.0" encoding="us-ascii" standalone="no"?><svg xmlns="http://www.w3.org/2000/svg" xmlns:xlink="http://www.w3.org/1999/xlink" contentStyleType="text/css" height="391px" preserveAspectRatio="none" style="width:209px;height:391px;background:#FFFFFF;" version="1.1" viewBox="0 0 209 391" width="209px" zoomAndPan="magnify"><defs/><g><text fill="#000000" font-family="sans-serif" font-size="14" font-weight="bold" lengthAdjust="spacing" textLength="123" x="36.3672" y="23.5352">Macro Evaluation</text><ellipse cx="132.7344" cy="53.4883" fill="#222222" rx="10" ry="10" style="stroke:none;stroke-width:1.0;"/><rect fill="#F1F1F1" height="34.1328" rx="12.5" ry="12.5" style="stroke:#181818;stroke-width:0.5;" width="121" x="72.4844" y="105.4883"/><text fill="#000000" font-family="sans-serif" font-size="12" lengthAdjust="spacing" textLength="101" x="82.4844" y="127.0898">Macro Start String</text><g id="elem_#5"><polygon fill="#F1F1F1" points="132.7344,181.4883,144.7344,193.4883,132.7344,205.4883,120.7344,193.4883,132.7344,181.4883" style="stroke:#181818;stroke-width:0.5;"/></g><rect fill="#F1F1F1" height="48.2656" rx="12.5" ry="12.5" style="stroke:#181818;stroke-width:0.5;" width="90" x="24.7344" y="261.4883"/><text fill="#000000" font-family="sans-serif" font-size="12" lengthAdjust="spacing" textLength="70" x="34.7344" y="283.0898">evaluate the</text><text fill="#000000" font-family="sans-serif" font-size="12" lengthAdjust="spacing" textLength="69" x="34.7344" y="297.2227">macro input</text><rect fill="#F1F1F1" height="34.1328" rx="12.5" ry="12.5" style="stroke:#181818;stroke-width:0.5;" width="154" x="49.7344" y="351.4883"/><text fill="#000000" font-family="sans-serif" font-size="12" lengthAdjust="spacing" textLength="134" x="59.7344" y="373.0898">evaluate built-in macro</text><!--link start to Macro Start String--><g id="link_start_Macro Start String"><path d="M132.7344,63.5243 C132.7344,72.9003 132.7344,87.8983 132.7344,100.2893 " fill="none" id="start-to-Macro Start String" style="stroke:#181818;stroke-width:1.0;"/><polygon fill="#181818" points="132.7344,105.4163,136.7344,96.4163,132.7344,100.4163,128.7344,96.4163,132.7344,105.4163" style="stroke:#181818;stroke-width:1.0;"/></g><!--link Macro Start String to #5--><g id="link_Macro Start String_#5"><path d="M132.7344,139.4913 C132.7344,150.4393 132.7344,164.9163 132.7344,175.9723 " fill="none" id="Macro Start String-to-#5" style="stroke:#181818;stroke-width:1.0;"/><polygon fill="#181818" points="132.7344,181.0943,136.7344,172.0943,132.7344,176.0943,128.7344,172.0943,132.7344,181.0943" style="stroke:#181818;stroke-width:1.0;"/><text fill="#000000" font-family="sans-serif" font-size="11" lengthAdjust="spacing" textLength="107" x="6" y="172.2265">" # or @ character?",</text></g><!--link #5 to evaluate the\nmacro input--><g id="link_#5_evaluate the\nmacro input"><path d="M128.2034,200.9613 C120.1248,212.5023 102.7946,237.2593 89.0877,256.8403 " fill="none" id="#5-to-evaluate the\nmacro input" style="stroke:#181818;stroke-width:1.0;"/><polygon fill="#181818" points="86.0455,261.1863,94.4834,256.1068,88.9127,257.09,87.9295,251.5193,86.0455,261.1863" style="stroke:#181818;stroke-width:1.0;"/><text fill="#000000" font-family="sans-serif" font-size="11" lengthAdjust="spacing" textLength="7" x="114.7344" y="237.623">#</text></g><!--link evaluate the\nmacro input to evaluate built-in macro--><g id="link_evaluate the\nmacro input_evaluate built-in macro"><path d="M86.2212,309.9169 C94.4647,321.6313 104.3494,335.6781 112.2914,346.964 " fill="none" id="evaluate the\nmacro input-to-evaluate built-in macro" style="stroke:#181818;stroke-width:1.0;"/><polygon fill="#181818" points="115.343,351.3005,113.4347,341.6383,112.4655,347.2115,106.8923,346.2422,115.343,351.3005" style="stroke:#181818;stroke-width:1.0;"/></g><!--link #5 to evaluate built-in macro--><g id="link_#5_evaluate built-in macro"><path d="M132.3594,205.3103 C131.3854,233.3713 128.7674,308.8774 127.4754,346.12 " fill="none" id="#5-to-evaluate built-in macro" style="stroke:#181818;stroke-width:1.0;"/><polygon fill="#181818" points="127.2954,351.327,131.6051,342.4711,127.4688,346.33,123.6099,342.1937,127.2954,351.327" style="stroke:#181818;stroke-width:1.0;"/><text fill="#000000" font-family="sans-serif" font-size="11" lengthAdjust="spacing" textLength="9" x="133.7344" y="289.623">@</text></g><!--SRC=[VSun3i8m30NGtQUmqWKGlG9qOMHYX0uXkDGYSIhNuVo4Lc9ayU3__UJvnJ9vzGbJbXn6pOdGj120iKN2im-QyVJsiNZZB02RtHRRze1kZIxcrUfKbgS3u04TDfWLEmnZbOEH7jqURII1UdV5faT7AqZVzKtI8jLFYZbOx5z-BnojPS6buu3YJ2lJzVzgyk01FW00]--></g></svg>