<?xml version="1.0" encoding="us-ascii" standalone="no"?>
<svg xmlns="http://www.w3.org/2000/svg" contentStyleType="text/css" height="386px" preserveAspectRatio="none"
     style="width:236px;height:386px;background:#FFFFFF;" version="1.1" viewBox="0 0 236 386" width="236px"
     zoomAndPan="magnify"><defs/><g><text fill="#000000" font-family="sans-serif" font-size="14" font-weight="bold" lengthAdjust="spacing" textLength="133" x="44.9359" y="22.9951">Macro Evaluation</text><ellipse cx="149.3719" cy="53.2969" fill="#222222" rx="10" ry="10" style="stroke:#222222;stroke-width:1.0;"/><rect fill="#F1F1F1" height="33.9688" rx="12.5" ry="12.5" style="stroke:#181818;stroke-width:0.5;" width="134" x="82.3719" y="104.2969"/><text fill="#000000" font-family="sans-serif" font-size="12" lengthAdjust="spacing" textLength="114" x="92.3719" y="125.4355">Macro Start String</text><g id="elem_#5"><polygon fill="#F1F1F1" points="149.3719,179.2569,161.3719,191.2569,149.3719,203.2569,137.3719,191.2569,149.3719,179.2569" style="stroke:#181818;stroke-width:0.5;"/></g><rect fill="#F1F1F1" height="47.9375" rx="12.5" ry="12.5" style="stroke:#181818;stroke-width:0.5;" width="99" x="54.8719" y="257.2569"/><text fill="#000000" font-family="sans-serif" font-size="12" lengthAdjust="spacing" textLength="79" x="64.8719" y="278.3955">evaluate the</text><text fill="#000000" font-family="sans-serif" font-size="12" lengthAdjust="spacing" textLength="75" x="64.8719" y="292.3643">macro input</text><rect fill="#F1F1F1" height="33.9688" rx="12.5" ry="12.5" style="stroke:#181818;stroke-width:0.5;" width="163" x="67.8719" y="346.1969"/><text fill="#000000" font-family="sans-serif" font-size="12" lengthAdjust="spacing" textLength="143" x="77.8719" y="367.3355">evaluate built-in macro</text><!--link start to Macro Start String--><g id="link_start_Macro Start String"><path d="M149.3719,63.7469 C149.3719,74.2269 149.3719,85.3069 149.3719,97.9569 " fill="none" id="start-to-Macro Start String" style="stroke:#181818;stroke-width:1.0;"/><polygon fill="#181818" points="149.3719,103.9569,153.3719,94.9569,149.3719,98.9569,145.3719,94.9569,149.3719,103.9569" style="stroke:#181818;stroke-width:1.0;"/></g><!--link Macro Start String to #5--><g id="link_Macro Start String_#5"><path d="M149.3719,138.7369 C149.3719,151.1469 149.3719,161.8669 149.3719,172.8469 " fill="none" id="Macro Start String-to-#5" style="stroke:#181818;stroke-width:1.0;"/><polygon fill="#181818" points="149.3719,178.8469,153.3719,169.8469,149.3719,173.8469,145.3719,169.8469,149.3719,178.8469" style="stroke:#181818;stroke-width:1.0;"/><text fill="#000000" font-family="sans-serif" font-size="11" lengthAdjust="spacing" textLength="123" x="6" y="171.0923">" # or @ character?",</text></g><!--link #5 to evaluate the\nmacro input--><g id="link_#5_evaluate the\nmacro input"><path d="M145.5319,199.7569 C139.1119,212.3069 128.6856,232.7058 118.9556,251.7158 " fill="none" id="#5-to-evaluate the\nmacro input" style="stroke:#181818;stroke-width:1.0;"/><polygon fill="#181818" points="116.2219,257.0569,123.8832,250.8678,118.5,252.606,116.7618,247.2228,116.2219,257.0569" style="stroke:#181818;stroke-width:1.0;"/><text fill="#000000" font-family="sans-serif" font-size="11" lengthAdjust="spacing" textLength="9" x="137.3719" y="234.4673">#</text></g><!--link evaluate the\nmacro input to evaluate built-in macro--><g id="link_evaluate the\nmacro input_evaluate built-in macro"><path d="M117.3919,305.3569 C124.6519,318.2669 130.598,328.8287 137.158,340.4787 " fill="none" id="evaluate the\nmacro input-to-evaluate built-in macro" style="stroke:#181818;stroke-width:1.0;"/><polygon fill="#181818" points="140.1019,345.7069,139.1714,335.9021,137.6486,341.3501,132.2006,339.8273,140.1019,345.7069" style="stroke:#181818;stroke-width:1.0;"/></g><!--link #5 to evaluate built-in macro--><g id="link_#5_evaluate built-in macro"><path d="M151.8719,200.9969 C155.2819,213.3869 161.1919,236.8269 163.3719,257.2569 C165.6319,278.4469 165.9319,284.0469 163.3719,305.1969 C161.6819,319.1569 159.4111,328.8637 156.1411,340.1537 " fill="none" id="#5-to-evaluate built-in macro" style="stroke:#181818;stroke-width:1.0;"/><polygon fill="#181818" points="154.4719,345.9169,160.8178,338.385,155.8629,341.1143,153.1336,336.1594,154.4719,345.9169" style="stroke:#181818;stroke-width:1.0;"/><text fill="#000000" font-family="sans-serif" font-size="11" lengthAdjust="spacing" textLength="12" x="170.3719" y="285.4373">@</text></g><!--SRC=[VSun3i8m30NGtQUmqWKGlG9qOMHYX0uXkDGYSIhNuVo4Lc9ayU3__UJvnJ9vzGbJbXn6pOdGj120iKN2im-QyVJsiNZZB02RtHRRze1kZIxcrUfKbgS3u04TDfWLEmnZbOEH7jqURII1UdV5faT7AqZVzKtI8jLFYZbOx5z-BnojPS6buu3YJ2lJzVzgyk01FW00]--></g></svg>