<?xml version="1.0" encoding="us-ascii" standalone="no"?><svg xmlns="http://www.w3.org/2000/svg" xmlns:xlink="http://www.w3.org/1999/xlink" contentStyleType="text/css" height="363px" preserveAspectRatio="none" style="width:188px;height:363px;background:#FFFFFF;" version="1.1" viewBox="0 0 188 363" width="188px" zoomAndPan="magnify"><defs/><g><ellipse cx="94" cy="20" fill="#222222" rx="10" ry="10" style="stroke:#222222;stroke-width:1.0;"/><rect fill="#F1F1F1" height="33.9688" rx="12.5" ry="12.5" style="stroke:#181818;stroke-width:0.5;" width="126" x="31" y="71.3989"/><text fill="#000000" font-family="sans-serif" font-size="12" lengthAdjust="spacing" textLength="106" x="41" y="92.5376">Jamal Processing</text><rect fill="#F1F1F1" height="33.9688" rx="12.5" ry="12.5" style="stroke:#181818;stroke-width:0.5;" width="64" x="62" y="146.7666"/><text fill="#000000" font-family="sans-serif" font-size="12" lengthAdjust="spacing" textLength="40" x="76" y="167.9053">$input</text><rect fill="#F1F1F1" height="33.9688" rx="12.5" ry="12.5" style="stroke:#181818;stroke-width:0.5;" width="166" x="11" y="200.7354"/><text fill="#000000" font-family="sans-serif" font-size="12" lengthAdjust="spacing" textLength="146" x="21" y="221.874">Defer macro evaluation</text><rect fill="#F1F1F1" height="33.9688" rx="12.5" ry="12.5" style="stroke:#181818;stroke-width:0.5;" width="74" x="57" y="276.103"/><text fill="#000000" font-family="sans-serif" font-size="12" lengthAdjust="spacing" textLength="50" x="71" y="297.2417">$output</text><ellipse cx="94" cy="341.0718" fill="none" rx="11" ry="11" style="stroke:#222222;stroke-width:1.0;"/><ellipse cx="94" cy="341.0718" fill="#222222" rx="6" ry="6" style="stroke:#222222;stroke-width:1.0;"/><line style="stroke:#181818;stroke-width:1.0;" x1="94" x2="94" y1="30" y2="71.3989"/><polygon fill="#181818" points="90,61.3989,94,71.3989,98,61.3989,94,65.3989" style="stroke:#181818;stroke-width:1.0;"/><text fill="#000000" font-family="sans-serif" font-size="11" lengthAdjust="spacing" textLength="28" x="98" y="51.3047">input</text><line style="stroke:#181818;stroke-width:1.0;" x1="94" x2="94" y1="105.3677" y2="146.7666"/><polygon fill="#181818" points="90,136.7666,94,146.7666,98,136.7666,94,140.7666" style="stroke:#181818;stroke-width:1.0;"/><text fill="#000000" font-family="sans-serif" font-size="11" lengthAdjust="spacing" textLength="36" x="98" y="126.6724">output</text><line style="stroke:#181818;stroke-width:1.0;" x1="94" x2="94" y1="180.7354" y2="200.7354"/><polygon fill="#181818" points="90,190.7354,94,200.7354,98,190.7354,94,194.7354" style="stroke:#181818;stroke-width:1.0;"/><line style="stroke:#181818;stroke-width:1.0;" x1="94" x2="94" y1="234.7041" y2="276.103"/><polygon fill="#181818" points="90,266.103,94,276.103,98,266.103,94,270.103" style="stroke:#181818;stroke-width:1.0;"/><text fill="#000000" font-family="sans-serif" font-size="11" lengthAdjust="spacing" textLength="36" x="98" y="256.0088">output</text><line style="stroke:#181818;stroke-width:1.0;" x1="94" x2="94" y1="310.0718" y2="330.0718"/><polygon fill="#181818" points="90,320.0718,94,330.0718,98,320.0718,94,324.0718" style="stroke:#181818;stroke-width:1.0;"/><!--SRC=[Aov9B2hXqhLJoCmhA2snvhBoIinDp548ACfFJYqkpinBjmP9vfUMG6GLL63gN5BJKeiKSXEJY_8LKiiISqeJIpBpyz1LmvZ59Va50000]--></g></svg>