<?xml version="1.0" encoding="us-ascii" standalone="no"?><svg xmlns="http://www.w3.org/2000/svg" xmlns:xlink="http://www.w3.org/1999/xlink" contentStyleType="text/css" height="363px" preserveAspectRatio="none" style="width:176px;height:363px;background:#FFFFFF;" version="1.1" viewBox="0 0 176 363" width="176px" zoomAndPan="magnify"><defs/><g><ellipse cx="88" cy="20" fill="#222222" rx="10" ry="10" style="stroke:#222222;stroke-width:1.0;"/><rect fill="#F1F1F1" height="34.1328" rx="12.5" ry="12.5" style="stroke:#181818;stroke-width:0.5;" width="117" x="29.5" y="71.2754"/><text fill="#000000" font-family="sans-serif" font-size="12" lengthAdjust="spacing" textLength="97" x="39.5" y="92.877">Jamal Processing</text><rect fill="#F1F1F1" height="34.1328" rx="12.5" ry="12.5" style="stroke:#181818;stroke-width:0.5;" width="61" x="57.5" y="146.6836"/><text fill="#000000" font-family="sans-serif" font-size="12" lengthAdjust="spacing" textLength="37" x="71.5" y="168.2852">$input</text><rect fill="#F1F1F1" height="34.1328" rx="12.5" ry="12.5" style="stroke:#181818;stroke-width:0.5;" width="154" x="11" y="200.8164"/><text fill="#000000" font-family="sans-serif" font-size="12" lengthAdjust="spacing" textLength="134" x="21" y="222.418">Defer macro evaluation</text><rect fill="#F1F1F1" height="34.1328" rx="12.5" ry="12.5" style="stroke:#181818;stroke-width:0.5;" width="69" x="53.5" y="276.2246"/><text fill="#000000" font-family="sans-serif" font-size="12" lengthAdjust="spacing" textLength="45" x="67.5" y="297.8262">$output</text><ellipse cx="88" cy="341.3574" fill="none" rx="11" ry="11" style="stroke:#222222;stroke-width:1.0;"/><ellipse cx="88" cy="341.3574" fill="#222222" rx="6" ry="6" style="stroke:#111111;stroke-width:1.0;"/><line style="stroke:#181818;stroke-width:1.0;" x1="88" x2="88" y1="30" y2="71.2754"/><polygon fill="#181818" points="84,61.2754,88,71.2754,92,61.2754,88,65.2754" style="stroke:#181818;stroke-width:1.0;"/><text fill="#000000" font-family="sans-serif" font-size="11" lengthAdjust="spacing" textLength="28" x="92" y="51.4551">input</text><line style="stroke:#181818;stroke-width:1.0;" x1="88" x2="88" y1="105.4082" y2="146.6836"/><polygon fill="#181818" points="84,136.6836,88,146.6836,92,136.6836,88,140.6836" style="stroke:#181818;stroke-width:1.0;"/><text fill="#000000" font-family="sans-serif" font-size="11" lengthAdjust="spacing" textLength="36" x="92" y="126.8633">output</text><line style="stroke:#181818;stroke-width:1.0;" x1="88" x2="88" y1="180.8164" y2="200.8164"/><polygon fill="#181818" points="84,190.8164,88,200.8164,92,190.8164,88,194.8164" style="stroke:#181818;stroke-width:1.0;"/><line style="stroke:#181818;stroke-width:1.0;" x1="88" x2="88" y1="234.9492" y2="276.2246"/><polygon fill="#181818" points="84,266.2246,88,276.2246,92,266.2246,88,270.2246" style="stroke:#181818;stroke-width:1.0;"/><text fill="#000000" font-family="sans-serif" font-size="11" lengthAdjust="spacing" textLength="36" x="92" y="256.4043">output</text><line style="stroke:#181818;stroke-width:1.0;" x1="88" x2="88" y1="310.3574" y2="330.3574"/><polygon fill="#181818" points="84,320.3574,88,330.3574,92,320.3574,88,324.3574" style="stroke:#181818;stroke-width:1.0;"/><!--SRC=[Aov9B2hXqhLJoCmhA2snvhBoIinDp548ACfFJYqkpinBjmP9vfUMG6GLL63gN5BJKeiKSXEJY_8LKiiISqeJIpBpyz1LmvZ59Va50000]--></g></svg>