<?xml version="1.0" encoding="UTF-8" standalone="no"?>
<!DOCTYPE svg PUBLIC "-//W3C//DTD SVG 1.1//EN" "http://www.w3.org/Graphics/SVG/1.1/DTD/svg11.dtd">
<svg xmlns:dc="http://purl.org/dc/elements/1.1/" version="1.1" xmlns="http://www.w3.org/2000/svg" xmlns:xl="http://www.w3.org/1999/xlink" viewBox="-1 -1 1002 1002" width="1002" height="1002">
  <defs/>
  <g id="Canvas_1" stroke-opacity="1" fill-opacity="1" fill="none" stroke="none" stroke-dasharray="none">
    <title>Canvas 1</title>
    <g id="Canvas_1_Layer_1">
      <title>Layer 1</title>
      <g id="Group_2">
        <title>logo</title>
        <g id="Group_3">
          <title>logo_Layer_1</title>
          <g id="Group_10">
            <title>Graphic_2</title>
            <g id="Graphic_12">
              <path d="M 350 -11368684e-20 L 650 -11368684e-20 C 750 -11368684e-20 800 -11368684e-20 860 20 C 910 40 960 90 980 140 C 1e3 200 1e3 250 1e3 350 L 1e3 650 C 1e3 750 1e3 800 980 860 C 960 910 910 960 860 980 C 800 1e3 750 1e3 650 1e3 L 350 1e3 C 250 1e3 200 1e3 140 980 C 90 960 40 910 20 860 C 0 800 0 750 0 650 L 0 350 C 0 250 0 200 20 140 C 40 90 90 40 140 20 C 200 -11368684e-20 250 -11368684e-20 350 -11368684e-20" fill="#ff4c41"/>
            </g>
            <g id="Graphic_11">
              <path d="M 350 -11368684e-20 L 650 -11368684e-20 C 750 -11368684e-20 800 -11368684e-20 860 20 C 910 40 960 90 980 140 C 1e3 200 1e3 250 1e3 350 L 1e3 650 C 1e3 750 1e3 800 980 860 C 960 910 910 960 860 980 C 800 1e3 750 1e3 650 1e3 L 350 1e3 C 250 1e3 200 1e3 140 980 C 90 960 40 910 20 860 C 0 800 0 750 0 650 L 0 350 C 0 250 0 200 20 140 C 40 90 90 40 140 20 C 200 -11368684e-20 250 -11368684e-20 350 -11368684e-20" stroke="#f33" stroke-linecap="round" stroke-linejoin="round" stroke-width="1"/>
            </g>
          </g>
          <g id="Group_8">
            <title>Graphic_28</title>
            <g id="Graphic_9">
              <path d="M 724.9 758.3772 L 724.9 842.5 L 801.1 842.5 C 807.9 842.5 815.6 840.3719 824.2 836.1157 C 832.8 831.8594 840.8 825.6004 848.2 817.3383 C 855.6 809.0762 861.9 798.5609 867.1 785.7922 C 872.3 773.0235 874.9 758.1269 874.9 741.102 L 874.9 595.38925 C 874.9 583.8724 876.9 574.1082 880.9 566.0965 C 884.9 558.08476 889.7 551.7005 895.3 546.9435 C 900.9 542.18656 906.9 538.6815 913.3 536.4282 C 919.7 534.1749 925.3 533.04825 930.1 533.04825 L 930.1 467.70285 C 925.3 467.70285 919.7 466.5762 913.3 464.3229 C 906.9 462.0696 900.9 458.31417 895.3 453.05647 C 889.7 447.79877 884.9 440.7886 880.9 432.02577 C 876.9 423.26293 874.9 412.6225 874.9 400.10417 L 874.9 258.89803 C 874.9 241.8731 872.3 226.9765 867.1 214.2078 C 861.9 201.43908 855.6 190.92384 848.2 182.66173 C 840.8 174.39963 832.8 168.14055 824.2 163.88432 C 815.6 159.62809 807.9 157.5 801.1 157.5 L 724.9 157.5 L 724.9 241.6228 L 757.3 241.6228 C 764.5 241.6228 770.2 243.37535 774.4 246.88048 C 778.6 250.38562 781.9 254.76697 784.3 260.02467 C 786.7 265.28237 788.2 271.1659 788.8 277.67544 C 789.4 284.18497 789.7 290.44405 789.7 296.45285 L 789.7 410.6195 C 789.7 429.14666 792 444.04326 796.6 455.30976 C 801.2 466.57626 806.6 475.33897 812.8 481.59814 C 819 487.8573 825.5 492.23866 832.3 494.7423 C 839.1 497.246 844.7 498.7482 849.1 499.2489 L 849.1 501.5022 C 844.7 502.0029 839.1 503.6303 832.3 506.3843 C 825.5 509.13835 819 513.6449 812.8 519.90406 C 806.6 526.1632 801.2 534.4252 796.6 544.69024 C 792 554.9553 789.7 568.09934 789.7 584.1228 L 789.7 704.29825 C 789.7 709.8063 789.4 715.815 788.8 722.3246 C 788.2 728.8341 786.7 734.7176 784.3 739.9753 C 781.9 745.233 778.6 749.6144 774.4 753.1195 C 770.2 756.62465 764.5 758.3772 757.3 758.3772 Z" fill="white"/>
            </g>
          </g>
          <g id="Group_6">
            <title>Graphic_29</title>
            <g id="Graphic_7">
              <path d="M 274.5 241.6228 L 274.5 157.5 L 198.3 157.5 C 191.49997 157.5 183.80004 159.62809 175.2 163.88432 C 166.59996 168.14055 158.60004 174.39963 151.2 182.66173 C 143.79996 190.92384 137.50003 201.43908 132.3 214.2078 C 127.09997 226.9765 124.5 241.8731 124.5 258.89803 L 124.5 400.10417 C 124.5 412.6225 122.5 423.26293 118.5 432.02577 C 114.5 440.7886 109.70003 447.79877 104.1 453.05647 C 98.49997 458.31417 92.50003 462.0696 86.1 464.3229 C 79.69997 466.5762 74.30002 467.70285 69.9 467.70285 L 69.9 533.04825 C 74.30002 533.04825 79.69997 534.1749 86.1 536.4282 C 92.50003 538.6815 98.49997 542.18656 104.1 546.9435 C 109.70003 551.7005 114.5 558.08476 118.5 566.0965 C 122.5 574.1082 124.5 583.8724 124.5 595.38925 L 124.5 741.102 C 124.5 758.1269 127.09997 773.0235 132.3 785.7922 C 137.50003 798.5609 143.79996 809.0762 151.2 817.3383 C 158.60004 825.6004 166.59996 831.8594 175.2 836.1157 C 183.80004 840.3719 191.49997 842.5 198.3 842.5 L 274.5 842.5 L 274.5 758.3772 L 242.1 758.3772 C 234.89996 758.3772 229.2 756.62465 225 753.1195 C 220.8 749.6144 217.5 745.233 215.1 739.9753 C 212.7 734.7176 211.2 728.8341 210.6 722.3246 C 210 715.815 209.7 709.8063 209.7 704.29825 L 209.7 584.1228 C 209.7 568.09934 207.4 554.9553 202.8 544.69024 C 198.2 534.4252 192.80003 526.1632 186.6 519.90406 C 180.39997 513.6449 173.90003 509.13835 167.1 506.3843 C 160.29997 503.6303 154.7 502.0029 150.3 501.5022 L 150.3 499.2489 C 154.7 498.7482 160.29997 497.246 167.1 494.7423 C 173.90003 492.23866 180.39997 487.8573 186.6 481.59814 C 192.80003 475.33897 198.2 466.57626 202.8 455.30976 C 207.4 444.04326 209.7 429.14666 209.7 410.6195 L 209.7 296.45285 C 209.7 290.44405 210 284.18497 210.6 277.67544 C 211.2 271.1659 212.7 265.28237 215.1 260.02467 C 217.5 254.76697 220.8 250.38562 225 246.88048 C 229.2 243.37535 234.89996 241.6228 242.1 241.6228 Z" fill="white"/>
            </g>
          </g>
          <g id="Group_4">
            <title>Graphic_48</title>
            <g id="Graphic_5">
              <path d="M 349.3 498.2 L 349.3 705 L 383.3 705 L 383.3 576.2 C 383.3 572.2 384.3 567.2 386.3 561.2 C 388.3 555.2 391.5 549.4 395.9 543.8 C 400.3 538.2 406.0333 533.4 413.1 529.4 C 420.1667 525.4 428.6333 523.4 438.5 523.4 C 446.2334 523.4 452.56665 524.5333 457.5 526.8 C 462.4334 529.0667 466.3667 532.26665 469.3 536.4 C 472.23335 540.53335 474.3 545.4 475.5 551 C 476.7 556.6 477.3 562.7333 477.3 569.4 L 477.3 705 L 511.3 705 L 511.3 576.2 C 511.3 560.1999 516.1 547.40005 525.7 537.8 C 535.3001 528.19995 548.4999 523.4 565.3 523.4 C 573.5667 523.4 580.3 524.6 585.5 527 C 590.7 529.4 594.7667 532.66665 597.7 536.8 C 600.6334 540.93335 602.6333 545.8 603.7 551.4 C 604.7667 557 605.3 563 605.3 569.4 L 605.3 705 L 639.3 705 L 639.3 553.4 C 639.3 542.7333 637.6334 533.60004 634.3 526 C 630.9667 518.39996 626.3 512.2 620.3 507.4 C 614.3 502.6 607.1 499.0667 598.7 496.8 C 590.3 494.5333 580.9001 493.4 570.5 493.4 C 556.8999 493.4 544.4334 496.46664 533.1 502.6 C 521.7666 508.73336 512.6334 517.39994 505.7 528.6 C 501.4333 515.79994 494.1001 506.73336 483.7 501.4 C 473.29995 496.06664 461.7001 493.4 448.9 493.4 C 419.8332 493.4 397.56675 505.1332 382.1 528.6 L 381.3 528.6 L 381.3 498.2 Z" fill="black"/>
            </g>
          </g>
        </g>
      </g>
    </g>
  </g>
</svg>
