<?xml version="1.0" encoding="us-ascii" standalone="no"?>
<svg xmlns="http://www.w3.org/2000/svg" contentStyleType="text/css" height="686px" preserveAspectRatio="none"
     style="width:712px;height:686px;background:#FFFFFF;" version="1.1" viewBox="0 0 712 686" width="712px"
     zoomAndPan="magnify"><defs/><g><rect fill="none" height="117.5313" style="stroke:#000000;stroke-width:1.5;" width="340.5" x="198" y="328.2266"/><line style="stroke:#181818;stroke-width:0.5;stroke-dasharray:5.0,5.0;" x1="24" x2="24" y1="81.2969" y2="679.6875"/><line style="stroke:#181818;stroke-width:0.5;stroke-dasharray:5.0,5.0;" x1="113.5" x2="113.5" y1="81.2969" y2="679.6875"/><line style="stroke:#181818;stroke-width:0.5;stroke-dasharray:5.0,5.0;" x1="293" x2="293" y1="81.2969" y2="679.6875"/><line style="stroke:#181818;stroke-width:0.5;stroke-dasharray:5.0,5.0;" x1="503.5" x2="503.5" y1="81.2969" y2="679.6875"/><line style="stroke:#181818;stroke-width:0.5;stroke-dasharray:5.0,5.0;" x1="622.5" x2="622.5" y1="81.2969" y2="679.6875"/><text fill="#000000" font-family="sans-serif" font-size="14" lengthAdjust="spacing" textLength="32" x="5" y="77.9951">User</text><ellipse cx="24" cy="13.5" fill="#E2E2F0" rx="8" ry="8" style="stroke:#181818;stroke-width:0.5;"/><path d="M24,21.5 L24,48.5 M11,29.5 L37,29.5 M24,48.5 L11,63.5 M24,48.5 L37,63.5 " fill="none" style="stroke:#181818;stroke-width:0.5;"/><rect fill="#E2E2F0" height="30.2969" rx="2.5" ry="2.5" style="stroke:#181818;stroke-width:0.5;" width="59" x="84.5" y="50"/><text fill="#000000" font-family="sans-serif" font-size="14" lengthAdjust="spacing" textLength="45" x="91.5" y="69.9951">Maven</text><rect fill="#E2E2F0" height="30.2969" rx="2.5" ry="2.5" style="stroke:#181818;stroke-width:0.5;" width="170" x="208" y="50"/><text fill="#000000" font-family="sans-serif" font-size="14" lengthAdjust="spacing" textLength="156" x="215" y="69.9951">Jamal Maven Extension</text><rect fill="#E2E2F0" height="30.2969" rx="2.5" ry="2.5" style="stroke:#181818;stroke-width:0.5;" width="49" x="479.5" y="50"/><text fill="#000000" font-family="sans-serif" font-size="14" lengthAdjust="spacing" textLength="35" x="486.5" y="69.9951">Jamal</text><rect fill="#E2E2F0" height="30.2969" rx="2.5" ry="2.5" style="stroke:#181818;stroke-width:0.5;" width="168" x="538.5" y="50"/><text fill="#000000" font-family="sans-serif" font-size="14" lengthAdjust="spacing" textLength="154" x="545.5" y="69.9951">Maven Plaform Reader</text><polygon fill="#181818" points="102,108.4297,112,112.4297,102,116.4297" style="stroke:#181818;stroke-width:1.0;"/><line style="stroke:#181818;stroke-width:1.0;" x1="24" x2="108" y1="112.4297" y2="112.4297"/><text fill="#000000" font-family="sans-serif" font-size="13" lengthAdjust="spacing" textLength="66" x="31" y="107.3638">mvn verify</text><line style="stroke:#181818;stroke-width:1.0;" x1="114" x2="156" y1="141.5625" y2="141.5625"/><line style="stroke:#181818;stroke-width:1.0;" x1="156" x2="156" y1="141.5625" y2="154.5625"/><line style="stroke:#181818;stroke-width:1.0;" x1="115" x2="156" y1="154.5625" y2="154.5625"/><polygon fill="#181818" points="125,150.5625,115,154.5625,125,158.5625" style="stroke:#181818;stroke-width:1.0;"/><text fill="#000000" font-family="sans-serif" font-size="13" lengthAdjust="spacing" textLength="165" x="121" y="136.4966">read .mvn/extensions.xml</text><polygon fill="#181818" points="281,179.6953,291,183.6953,281,187.6953" style="stroke:#181818;stroke-width:1.0;"/><line style="stroke:#181818;stroke-width:1.0;" x1="114" x2="287" y1="183.6953" y2="183.6953"/><text fill="#000000" font-family="sans-serif" font-size="13" lengthAdjust="spacing" textLength="36" x="121" y="178.6294">LOAD</text><polygon fill="#181818" points="281,208.8281,291,212.8281,281,216.8281" style="stroke:#181818;stroke-width:1.0;"/><line style="stroke:#181818;stroke-width:1.0;" x1="114" x2="287" y1="212.8281" y2="212.8281"/><text fill="#000000" font-family="sans-serif" font-size="13" lengthAdjust="spacing" textLength="116" x="121" y="207.7622">get pom structure</text><polygon fill="#181818" points="492,237.9609,502,241.9609,492,245.9609" style="stroke:#181818;stroke-width:1.0;"/><line style="stroke:#181818;stroke-width:1.0;" x1="293" x2="498" y1="241.9609" y2="241.9609"/><text fill="#000000" font-family="sans-serif" font-size="13" lengthAdjust="spacing" textLength="111" x="300" y="236.895">process pom.jam</text><polygon fill="#181818" points="304,267.0938,294,271.0938,304,275.0938" style="stroke:#181818;stroke-width:1.0;"/><line style="stroke:#181818;stroke-width:1.0;stroke-dasharray:2.0,2.0;" x1="298" x2="503" y1="271.0938" y2="271.0938"/><text fill="#000000" font-family="sans-serif" font-size="13" lengthAdjust="spacing" textLength="36" x="310" y="266.0278">result</text><line style="stroke:#181818;stroke-width:1.0;" x1="293" x2="335" y1="300.2266" y2="300.2266"/><line style="stroke:#181818;stroke-width:1.0;" x1="335" x2="335" y1="300.2266" y2="313.2266"/><line style="stroke:#181818;stroke-width:1.0;" x1="294" x2="335" y1="313.2266" y2="313.2266"/><polygon fill="#181818" points="304,309.2266,294,313.2266,304,317.2266" style="stroke:#181818;stroke-width:1.0;"/><text fill="#000000" font-family="sans-serif" font-size="13" lengthAdjust="spacing" textLength="90" x="300" y="295.1606">save pom.xml</text><path d="M198,328.2266 L262,328.2266 L262,335.3594 L252,345.3594 L198,345.3594 L198,328.2266 " fill="#EEEEEE" style="stroke:#000000;stroke-width:1.5;"/><rect fill="none" height="117.5313" style="stroke:#000000;stroke-width:1.5;" width="340.5" x="198" y="328.2266"/><text fill="#000000" font-family="sans-serif" font-size="13" font-weight="bold" lengthAdjust="spacing" textLength="19" x="213" y="341.2935">alt</text><text fill="#000000" font-family="sans-serif" font-size="11" font-weight="bold" lengthAdjust="spacing" textLength="82" x="277" y="340.437">[.mvn exists]</text><polygon fill="#181818" points="492,362.4922,502,366.4922,492,370.4922" style="stroke:#181818;stroke-width:1.0;"/><line style="stroke:#181818;stroke-width:1.0;" x1="293" x2="498" y1="366.4922" y2="366.4922"/><text fill="#000000" font-family="sans-serif" font-size="13" lengthAdjust="spacing" textLength="187" x="300" y="361.4263">process .mvn/extensions.jam</text><polygon fill="#181818" points="304,391.625,294,395.625,304,399.625" style="stroke:#181818;stroke-width:1.0;"/><line style="stroke:#181818;stroke-width:1.0;stroke-dasharray:2.0,2.0;" x1="298" x2="503" y1="395.625" y2="395.625"/><text fill="#000000" font-family="sans-serif" font-size="13" lengthAdjust="spacing" textLength="36" x="310" y="390.5591">result</text><line style="stroke:#181818;stroke-width:1.0;" x1="293" x2="335" y1="424.7578" y2="424.7578"/><line style="stroke:#181818;stroke-width:1.0;" x1="335" x2="335" y1="424.7578" y2="437.7578"/><line style="stroke:#181818;stroke-width:1.0;" x1="294" x2="335" y1="437.7578" y2="437.7578"/><polygon fill="#181818" points="304,433.7578,294,437.7578,304,441.7578" style="stroke:#181818;stroke-width:1.0;"/><text fill="#000000" font-family="sans-serif" font-size="13" lengthAdjust="spacing" textLength="181" x="300" y="419.6919">update .mvn/extensions.xml</text><polygon fill="#181818" points="125,469.8906,115,473.8906,125,477.8906" style="stroke:#181818;stroke-width:1.0;"/><line style="stroke:#181818;stroke-width:1.0;" x1="119" x2="292" y1="473.8906" y2="473.8906"/><text fill="#000000" font-family="sans-serif" font-size="13" lengthAdjust="spacing" textLength="78" x="131" y="468.8247">pom.xml file</text><polygon fill="#181818" points="281,499.0234,291,503.0234,281,507.0234" style="stroke:#181818;stroke-width:1.0;"/><line style="stroke:#181818;stroke-width:1.0;" x1="114" x2="287" y1="503.0234" y2="503.0234"/><text fill="#000000" font-family="sans-serif" font-size="13" lengthAdjust="spacing" textLength="116" x="121" y="497.9575">get pom structure</text><polygon fill="#181818" points="610.5,528.1563,620.5,532.1563,610.5,536.1563" style="stroke:#181818;stroke-width:1.0;"/><line style="stroke:#181818;stroke-width:1.0;" x1="293" x2="616.5" y1="532.1563" y2="532.1563"/><text fill="#000000" font-family="sans-serif" font-size="13" lengthAdjust="spacing" textLength="114" x="300" y="527.0903">read the pom.xml</text><polygon fill="#181818" points="304,557.2891,294,561.2891,304,565.2891" style="stroke:#181818;stroke-width:1.0;"/><line style="stroke:#181818;stroke-width:1.0;stroke-dasharray:2.0,2.0;" x1="298" x2="621.5" y1="561.2891" y2="561.2891"/><text fill="#000000" font-family="sans-serif" font-size="13" lengthAdjust="spacing" textLength="91" x="310" y="556.2231">pom structure</text><polygon fill="#181818" points="125,586.4219,115,590.4219,125,594.4219" style="stroke:#181818;stroke-width:1.0;"/><line style="stroke:#181818;stroke-width:1.0;stroke-dasharray:2.0,2.0;" x1="119" x2="292" y1="590.4219" y2="590.4219"/><text fill="#000000" font-family="sans-serif" font-size="13" lengthAdjust="spacing" textLength="91" x="131" y="585.356">pom structure</text><line style="stroke:#181818;stroke-width:1.0;" x1="114" x2="156" y1="619.5547" y2="619.5547"/><line style="stroke:#181818;stroke-width:1.0;" x1="156" x2="156" y1="619.5547" y2="632.5547"/><line style="stroke:#181818;stroke-width:1.0;" x1="115" x2="156" y1="632.5547" y2="632.5547"/><polygon fill="#181818" points="125,628.5547,115,632.5547,125,636.5547" style="stroke:#181818;stroke-width:1.0;"/><text fill="#000000" font-family="sans-serif" font-size="13" lengthAdjust="spacing" textLength="30" x="121" y="614.4888">build</text><polygon fill="#181818" points="35,657.6875,25,661.6875,35,665.6875" style="stroke:#181818;stroke-width:1.0;"/><line style="stroke:#181818;stroke-width:1.0;stroke-dasharray:2.0,2.0;" x1="29" x2="113" y1="661.6875" y2="661.6875"/><text fill="#000000" font-family="sans-serif" font-size="13" lengthAdjust="spacing" textLength="32" x="41" y="656.6216">done</text><!--SRC=[hLFBJiGm3BptAwpUM-wh5H8IN108XCG7cDQ5G1wLdLJTloVPjii2cm8IbnpicScCdM3Z7SEZ41VofcoFZ0R4xpJ5arNZWz55QaDr3hSua8KDcC72GAowNJ6LZdfCs48T4MSqUhAYd9LwZ287P7cD1lLCk5f0PUJUt5rS_WRtJ1vwbtnoY0wPYXmsoaoT3VJi6X99nFeLJPQohQe3Xqc2zclgUPCII_lBKdZKVZyKe569bmBW3uw_JZEvpmkSyBzwMpv1w5lqT7APPDjvKTjgHM6E3vtIzE-BBQVYlSREiO67-F28o-K9-fUFwQ-DAglosSSIzeUqtnX7F-CfADrEVodfBENMMNe7]--></g></svg>