<?xml version="1.0" encoding="us-ascii" standalone="no"?>
<svg xmlns="http://www.w3.org/2000/svg" contentStyleType="text/css" height="690px" preserveAspectRatio="none"
     style="width:713px;height:690px;background:#FFFFFF;" version="1.1" viewBox="0 0 713 690" width="713px"
     zoomAndPan="magnify"><defs/><g><rect fill="none" height="118.2422" style="stroke:#000000;stroke-width:1.5;" width="342" x="198" y="329.6621"/><line style="stroke:#181818;stroke-width:0.5;stroke-dasharray:5.0,5.0;" x1="23" x2="23" y1="81.4883" y2="683.0781"/><line style="stroke:#181818;stroke-width:0.5;stroke-dasharray:5.0,5.0;" x1="113.5" x2="113.5" y1="81.4883" y2="683.0781"/><line style="stroke:#181818;stroke-width:0.5;stroke-dasharray:5.0,5.0;" x1="293" x2="293" y1="81.4883" y2="683.0781"/><line style="stroke:#181818;stroke-width:0.5;stroke-dasharray:5.0,5.0;" x1="504" x2="504" y1="81.4883" y2="683.0781"/><line style="stroke:#181818;stroke-width:0.5;stroke-dasharray:5.0,5.0;" x1="623" x2="623" y1="81.4883" y2="683.0781"/><text fill="#000000" font-family="sans-serif" font-size="14" lengthAdjust="spacing" textLength="31" x="5" y="78.5352">User</text><ellipse cx="23.5" cy="13.5" fill="#E2E2F0" rx="8" ry="8" style="stroke:#181818;stroke-width:0.5;"/><path d="M23.5,21.5 L23.5,48.5 M10.5,29.5 L36.5,29.5 M23.5,48.5 L10.5,63.5 M23.5,48.5 L36.5,63.5 " fill="none" style="stroke:#181818;stroke-width:0.5;"/><rect fill="#E2E2F0" height="30.4883" rx="2.5" ry="2.5" style="stroke:#181818;stroke-width:0.5;" width="58" x="84.5" y="50"/><text fill="#000000" font-family="sans-serif" font-size="14" lengthAdjust="spacing" textLength="44" x="91.5" y="70.5352">Maven</text><rect fill="#E2E2F0" height="30.4883" rx="2.5" ry="2.5" style="stroke:#181818;stroke-width:0.5;" width="171" x="208" y="50"/><text fill="#000000" font-family="sans-serif" font-size="14" lengthAdjust="spacing" textLength="157" x="215" y="70.5352">Jamal Maven Extension</text><rect fill="#E2E2F0" height="30.4883" rx="2.5" ry="2.5" style="stroke:#181818;stroke-width:0.5;" width="51" x="479" y="50"/><text fill="#000000" font-family="sans-serif" font-size="14" lengthAdjust="spacing" textLength="37" x="486" y="70.5352">Jamal</text><rect fill="#E2E2F0" height="30.4883" rx="2.5" ry="2.5" style="stroke:#181818;stroke-width:0.5;" width="167" x="540" y="50"/><text fill="#000000" font-family="sans-serif" font-size="14" lengthAdjust="spacing" textLength="153" x="547" y="70.5352">Maven Plaform Reader</text><polygon fill="#181818" points="101.5,108.7988,111.5,112.7988,101.5,116.7988" style="stroke:#181818;stroke-width:1.0;"/><line style="stroke:#181818;stroke-width:1.0;" x1="23.5" x2="107.5" y1="112.7988" y2="112.7988"/><text fill="#000000" font-family="sans-serif" font-size="13" lengthAdjust="spacing" textLength="66" x="30.5" y="108.0566">mvn verify</text><line style="stroke:#181818;stroke-width:1.0;" x1="113.5" x2="155.5" y1="142.1094" y2="142.1094"/><line style="stroke:#181818;stroke-width:1.0;" x1="155.5" x2="155.5" y1="142.1094" y2="155.1094"/><line style="stroke:#181818;stroke-width:1.0;" x1="114.5" x2="155.5" y1="155.1094" y2="155.1094"/><polygon fill="#181818" points="124.5,151.1094,114.5,155.1094,124.5,159.1094" style="stroke:#181818;stroke-width:1.0;"/><text fill="#000000" font-family="sans-serif" font-size="13" lengthAdjust="spacing" textLength="166" x="120.5" y="137.3672">read .mvn/extensions.xml</text><polygon fill="#181818" points="281.5,180.4199,291.5,184.4199,281.5,188.4199" style="stroke:#181818;stroke-width:1.0;"/><line style="stroke:#181818;stroke-width:1.0;" x1="113.5" x2="287.5" y1="184.4199" y2="184.4199"/><text fill="#000000" font-family="sans-serif" font-size="13" lengthAdjust="spacing" textLength="36" x="120.5" y="179.6777">LOAD</text><polygon fill="#181818" points="281.5,209.7305,291.5,213.7305,281.5,217.7305" style="stroke:#181818;stroke-width:1.0;"/><line style="stroke:#181818;stroke-width:1.0;" x1="113.5" x2="287.5" y1="213.7305" y2="213.7305"/><text fill="#000000" font-family="sans-serif" font-size="13" lengthAdjust="spacing" textLength="113" x="120.5" y="208.9883">get pom structure</text><polygon fill="#181818" points="492.5,239.041,502.5,243.041,492.5,247.041" style="stroke:#181818;stroke-width:1.0;"/><line style="stroke:#181818;stroke-width:1.0;" x1="293.5" x2="498.5" y1="243.041" y2="243.041"/><text fill="#000000" font-family="sans-serif" font-size="13" lengthAdjust="spacing" textLength="108" x="300.5" y="238.2988">process pom.jam</text><polygon fill="#181818" points="304.5,268.3516,294.5,272.3516,304.5,276.3516" style="stroke:#181818;stroke-width:1.0;"/><line style="stroke:#181818;stroke-width:1.0;stroke-dasharray:2.0,2.0;" x1="298.5" x2="503.5" y1="272.3516" y2="272.3516"/><text fill="#000000" font-family="sans-serif" font-size="13" lengthAdjust="spacing" textLength="36" x="310.5" y="267.6094">result</text><line style="stroke:#181818;stroke-width:1.0;" x1="293.5" x2="335.5" y1="301.6621" y2="301.6621"/><line style="stroke:#181818;stroke-width:1.0;" x1="335.5" x2="335.5" y1="301.6621" y2="314.6621"/><line style="stroke:#181818;stroke-width:1.0;" x1="294.5" x2="335.5" y1="314.6621" y2="314.6621"/><polygon fill="#181818" points="304.5,310.6621,294.5,314.6621,304.5,318.6621" style="stroke:#181818;stroke-width:1.0;"/><text fill="#000000" font-family="sans-serif" font-size="13" lengthAdjust="spacing" textLength="88" x="300.5" y="296.9199">save pom.xml</text><path d="M198,329.6621 L260,329.6621 L260,336.9727 L250,346.9727 L198,346.9727 L198,329.6621 " fill="#EEEEEE" style="stroke:#000000;stroke-width:1.5;"/><rect fill="none" height="118.2422" style="stroke:#000000;stroke-width:1.5;" width="342" x="198" y="329.6621"/><text fill="#000000" font-family="sans-serif" font-size="13" font-weight="bold" lengthAdjust="spacing" textLength="17" x="213" y="343.2305">alt</text><text fill="#000000" font-family="sans-serif" font-size="11" font-weight="bold" lengthAdjust="spacing" textLength="72" x="275" y="342.2969">[.mvn exists]</text><polygon fill="#181818" points="492.5,364.2832,502.5,368.2832,492.5,372.2832" style="stroke:#181818;stroke-width:1.0;"/><line style="stroke:#181818;stroke-width:1.0;" x1="293.5" x2="498.5" y1="368.2832" y2="368.2832"/><text fill="#000000" font-family="sans-serif" font-size="13" lengthAdjust="spacing" textLength="187" x="300.5" y="363.541">process .mvn/extensions.jam</text><polygon fill="#181818" points="304.5,393.5938,294.5,397.5938,304.5,401.5938" style="stroke:#181818;stroke-width:1.0;"/><line style="stroke:#181818;stroke-width:1.0;stroke-dasharray:2.0,2.0;" x1="298.5" x2="503.5" y1="397.5938" y2="397.5938"/><text fill="#000000" font-family="sans-serif" font-size="13" lengthAdjust="spacing" textLength="36" x="310.5" y="392.8516">result</text><line style="stroke:#181818;stroke-width:1.0;" x1="293.5" x2="335.5" y1="426.9043" y2="426.9043"/><line style="stroke:#181818;stroke-width:1.0;" x1="335.5" x2="335.5" y1="426.9043" y2="439.9043"/><line style="stroke:#181818;stroke-width:1.0;" x1="294.5" x2="335.5" y1="439.9043" y2="439.9043"/><polygon fill="#181818" points="304.5,435.9043,294.5,439.9043,304.5,443.9043" style="stroke:#181818;stroke-width:1.0;"/><text fill="#000000" font-family="sans-serif" font-size="13" lengthAdjust="spacing" textLength="182" x="300.5" y="422.1621">update .mvn/extensions.xml</text><polygon fill="#181818" points="124.5,472.2148,114.5,476.2148,124.5,480.2148" style="stroke:#181818;stroke-width:1.0;"/><line style="stroke:#181818;stroke-width:1.0;" x1="118.5" x2="292.5" y1="476.2148" y2="476.2148"/><text fill="#000000" font-family="sans-serif" font-size="13" lengthAdjust="spacing" textLength="80" x="130.5" y="471.4727">pom.xml file</text><polygon fill="#181818" points="281.5,501.5254,291.5,505.5254,281.5,509.5254" style="stroke:#181818;stroke-width:1.0;"/><line style="stroke:#181818;stroke-width:1.0;" x1="113.5" x2="287.5" y1="505.5254" y2="505.5254"/><text fill="#000000" font-family="sans-serif" font-size="13" lengthAdjust="spacing" textLength="113" x="120.5" y="500.7832">get pom structure</text><polygon fill="#181818" points="611.5,530.8359,621.5,534.8359,611.5,538.8359" style="stroke:#181818;stroke-width:1.0;"/><line style="stroke:#181818;stroke-width:1.0;" x1="293.5" x2="617.5" y1="534.8359" y2="534.8359"/><text fill="#000000" font-family="sans-serif" font-size="13" lengthAdjust="spacing" textLength="111" x="300.5" y="530.0938">read the pom.xml</text><polygon fill="#181818" points="304.5,560.1465,294.5,564.1465,304.5,568.1465" style="stroke:#181818;stroke-width:1.0;"/><line style="stroke:#181818;stroke-width:1.0;stroke-dasharray:2.0,2.0;" x1="298.5" x2="622.5" y1="564.1465" y2="564.1465"/><text fill="#000000" font-family="sans-serif" font-size="13" lengthAdjust="spacing" textLength="89" x="310.5" y="559.4043">pom structure</text><polygon fill="#181818" points="124.5,589.457,114.5,593.457,124.5,597.457" style="stroke:#181818;stroke-width:1.0;"/><line style="stroke:#181818;stroke-width:1.0;stroke-dasharray:2.0,2.0;" x1="118.5" x2="292.5" y1="593.457" y2="593.457"/><text fill="#000000" font-family="sans-serif" font-size="13" lengthAdjust="spacing" textLength="89" x="130.5" y="588.7148">pom structure</text><line style="stroke:#181818;stroke-width:1.0;" x1="113.5" x2="155.5" y1="622.7676" y2="622.7676"/><line style="stroke:#181818;stroke-width:1.0;" x1="155.5" x2="155.5" y1="622.7676" y2="635.7676"/><line style="stroke:#181818;stroke-width:1.0;" x1="114.5" x2="155.5" y1="635.7676" y2="635.7676"/><polygon fill="#181818" points="124.5,631.7676,114.5,635.7676,124.5,639.7676" style="stroke:#181818;stroke-width:1.0;"/><text fill="#000000" font-family="sans-serif" font-size="13" lengthAdjust="spacing" textLength="32" x="120.5" y="618.0254">build</text><polygon fill="#181818" points="34.5,661.0781,24.5,665.0781,34.5,669.0781" style="stroke:#181818;stroke-width:1.0;"/><line style="stroke:#181818;stroke-width:1.0;stroke-dasharray:2.0,2.0;" x1="28.5" x2="112.5" y1="665.0781" y2="665.0781"/><text fill="#000000" font-family="sans-serif" font-size="13" lengthAdjust="spacing" textLength="31" x="40.5" y="660.3359">done</text><!--SRC=[hLFBJiGm3BptAwpUM-wh5H8IN108XCG7cDQ5G1wLdLJTloVPjii2cm8IbnpicScCdM3Z7SEZ41VofcoFZ0R4xpJ5arNZWz55QaDr3hSua8KDcC72GAowNJ6LZdfCs48T4MSqUhAYd9LwZ287P7cD1lLCk5f0PUJUt5rS_WRtJ1vwbtnoY0wPYXmsoaoT3VJi6X99nFeLJPQohQe3Xqc2zclgUPCII_lBKdZKVZyKe569bmBW3uw_JZEvpmkSyBzwMpv1w5lqT7APPDjvKTjgHM6E3vtIzE-BBQVYlSREiO67-F28o-K9-fUFwQ-DAglosSSIzeUqtnX7F-CfADrEVodfBENMMNe7]--></g></svg>