<?xml version="1.0" encoding="UTF-8" standalone="no"?><svg xmlns="http://www.w3.org/2000/svg" xmlns:xlink="http://www.w3.org/1999/xlink" contentScriptType="application/ecmascript" contentStyleType="text/css" height="560px" preserveAspectRatio="none" style="width:662px;height:560px;" version="1.1" viewBox="0 0 662 560" width="662px" zoomAndPan="magnify"><defs/><g><line style="stroke:#A80036;stroke-width:1.0;stroke-dasharray:5.0,5.0;" x1="23" x2="23" y1="84.4883" y2="553.8359"/><line style="stroke:#A80036;stroke-width:1.0;stroke-dasharray:5.0,5.0;" x1="113.5" x2="113.5" y1="84.4883" y2="553.8359"/><line style="stroke:#A80036;stroke-width:1.0;stroke-dasharray:5.0,5.0;" x1="293" x2="293" y1="84.4883" y2="553.8359"/><line style="stroke:#A80036;stroke-width:1.0;stroke-dasharray:5.0,5.0;" x1="453" x2="453" y1="84.4883" y2="553.8359"/><line style="stroke:#A80036;stroke-width:1.0;stroke-dasharray:5.0,5.0;" x1="572" x2="572" y1="84.4883" y2="553.8359"/><text fill="#000000" font-family="sans-serif" font-size="14" lengthAdjust="spacing" textLength="31" x="5" y="81.5352">User</text><ellipse cx="23.5" cy="15" fill="#FEFECE" rx="8" ry="8" style="stroke:#A80036;stroke-width:2.0;"/><path d="M23.5,23 L23.5,50 M10.5,31 L36.5,31 M23.5,50 L10.5,65 M23.5,50 L36.5,65 " fill="none" style="stroke:#A80036;stroke-width:2.0;"/><rect fill="#FEFECE" height="30.4883" style="stroke:#A80036;stroke-width:1.5;" width="58" x="84.5" y="53"/><text fill="#000000" font-family="sans-serif" font-size="14" lengthAdjust="spacing" textLength="44" x="91.5" y="73.5352">Maven</text><rect fill="#FEFECE" height="30.4883" style="stroke:#A80036;stroke-width:1.5;" width="171" x="208" y="53"/><text fill="#000000" font-family="sans-serif" font-size="14" lengthAdjust="spacing" textLength="157" x="215" y="73.5352">Jamal Maven Extension</text><rect fill="#FEFECE" height="30.4883" style="stroke:#A80036;stroke-width:1.5;" width="51" x="428" y="53"/><text fill="#000000" font-family="sans-serif" font-size="14" lengthAdjust="spacing" textLength="37" x="435" y="73.5352">Jamal</text><rect fill="#FEFECE" height="30.4883" style="stroke:#A80036;stroke-width:1.5;" width="167" x="489" y="53"/><text fill="#000000" font-family="sans-serif" font-size="14" lengthAdjust="spacing" textLength="153" x="496" y="73.5352">Maven Plaform Reader</text><polygon fill="#A80036" points="101.5,111.7988,111.5,115.7988,101.5,119.7988" style="stroke:#A80036;stroke-width:1.0;"/><line style="stroke:#A80036;stroke-width:1.0;" x1="23.5" x2="107.5" y1="115.7988" y2="115.7988"/><text fill="#000000" font-family="sans-serif" font-size="13" lengthAdjust="spacing" textLength="66" x="30.5" y="111.0566">mvn verify</text><line style="stroke:#A80036;stroke-width:1.0;" x1="113.5" x2="155.5" y1="145.1094" y2="145.1094"/><line style="stroke:#A80036;stroke-width:1.0;" x1="155.5" x2="155.5" y1="145.1094" y2="158.1094"/><line style="stroke:#A80036;stroke-width:1.0;" x1="114.5" x2="155.5" y1="158.1094" y2="158.1094"/><polygon fill="#A80036" points="124.5,154.1094,114.5,158.1094,124.5,162.1094" style="stroke:#A80036;stroke-width:1.0;"/><text fill="#000000" font-family="sans-serif" font-size="13" lengthAdjust="spacing" textLength="166" x="120.5" y="140.3672">read .mvn/extensions.xml</text><polygon fill="#A80036" points="281.5,183.4199,291.5,187.4199,281.5,191.4199" style="stroke:#A80036;stroke-width:1.0;"/><line style="stroke:#A80036;stroke-width:1.0;" x1="113.5" x2="287.5" y1="187.4199" y2="187.4199"/><text fill="#000000" font-family="sans-serif" font-size="13" lengthAdjust="spacing" textLength="36" x="120.5" y="182.6777">LOAD</text><polygon fill="#A80036" points="281.5,212.7305,291.5,216.7305,281.5,220.7305" style="stroke:#A80036;stroke-width:1.0;"/><line style="stroke:#A80036;stroke-width:1.0;" x1="113.5" x2="287.5" y1="216.7305" y2="216.7305"/><text fill="#000000" font-family="sans-serif" font-size="13" lengthAdjust="spacing" textLength="113" x="120.5" y="211.9883">get pom structure</text><polygon fill="#A80036" points="441.5,242.041,451.5,246.041,441.5,250.041" style="stroke:#A80036;stroke-width:1.0;"/><line style="stroke:#A80036;stroke-width:1.0;" x1="293.5" x2="447.5" y1="246.041" y2="246.041"/><text fill="#000000" font-family="sans-serif" font-size="13" lengthAdjust="spacing" textLength="136" x="300.5" y="241.2988">process pom.xml.jam</text><polygon fill="#A80036" points="304.5,271.3516,294.5,275.3516,304.5,279.3516" style="stroke:#A80036;stroke-width:1.0;"/><line style="stroke:#A80036;stroke-width:1.0;stroke-dasharray:2.0,2.0;" x1="298.5" x2="452.5" y1="275.3516" y2="275.3516"/><text fill="#000000" font-family="sans-serif" font-size="13" lengthAdjust="spacing" textLength="36" x="310.5" y="270.6094">result</text><line style="stroke:#A80036;stroke-width:1.0;" x1="293.5" x2="335.5" y1="304.6621" y2="304.6621"/><line style="stroke:#A80036;stroke-width:1.0;" x1="335.5" x2="335.5" y1="304.6621" y2="317.6621"/><line style="stroke:#A80036;stroke-width:1.0;" x1="294.5" x2="335.5" y1="317.6621" y2="317.6621"/><polygon fill="#A80036" points="304.5,313.6621,294.5,317.6621,304.5,321.6621" style="stroke:#A80036;stroke-width:1.0;"/><text fill="#000000" font-family="sans-serif" font-size="13" lengthAdjust="spacing" textLength="88" x="300.5" y="299.9199">save pom.xml</text><polygon fill="#A80036" points="124.5,342.9727,114.5,346.9727,124.5,350.9727" style="stroke:#A80036;stroke-width:1.0;"/><line style="stroke:#A80036;stroke-width:1.0;" x1="118.5" x2="292.5" y1="346.9727" y2="346.9727"/><text fill="#000000" font-family="sans-serif" font-size="13" lengthAdjust="spacing" textLength="80" x="130.5" y="342.2305">pom.xml file</text><polygon fill="#A80036" points="281.5,372.2832,291.5,376.2832,281.5,380.2832" style="stroke:#A80036;stroke-width:1.0;"/><line style="stroke:#A80036;stroke-width:1.0;" x1="113.5" x2="287.5" y1="376.2832" y2="376.2832"/><text fill="#000000" font-family="sans-serif" font-size="13" lengthAdjust="spacing" textLength="113" x="120.5" y="371.541">get pom structure</text><polygon fill="#A80036" points="560.5,401.5938,570.5,405.5938,560.5,409.5938" style="stroke:#A80036;stroke-width:1.0;"/><line style="stroke:#A80036;stroke-width:1.0;" x1="293.5" x2="566.5" y1="405.5938" y2="405.5938"/><text fill="#000000" font-family="sans-serif" font-size="13" lengthAdjust="spacing" textLength="111" x="300.5" y="400.8516">read the pom.xml</text><polygon fill="#A80036" points="304.5,430.9043,294.5,434.9043,304.5,438.9043" style="stroke:#A80036;stroke-width:1.0;"/><line style="stroke:#A80036;stroke-width:1.0;stroke-dasharray:2.0,2.0;" x1="298.5" x2="571.5" y1="434.9043" y2="434.9043"/><text fill="#000000" font-family="sans-serif" font-size="13" lengthAdjust="spacing" textLength="89" x="310.5" y="430.1621">pom structure</text><polygon fill="#A80036" points="124.5,460.2148,114.5,464.2148,124.5,468.2148" style="stroke:#A80036;stroke-width:1.0;"/><line style="stroke:#A80036;stroke-width:1.0;stroke-dasharray:2.0,2.0;" x1="118.5" x2="292.5" y1="464.2148" y2="464.2148"/><text fill="#000000" font-family="sans-serif" font-size="13" lengthAdjust="spacing" textLength="89" x="130.5" y="459.4727">pom structure</text><line style="stroke:#A80036;stroke-width:1.0;" x1="113.5" x2="155.5" y1="493.5254" y2="493.5254"/><line style="stroke:#A80036;stroke-width:1.0;" x1="155.5" x2="155.5" y1="493.5254" y2="506.5254"/><line style="stroke:#A80036;stroke-width:1.0;" x1="114.5" x2="155.5" y1="506.5254" y2="506.5254"/><polygon fill="#A80036" points="124.5,502.5254,114.5,506.5254,124.5,510.5254" style="stroke:#A80036;stroke-width:1.0;"/><text fill="#000000" font-family="sans-serif" font-size="13" lengthAdjust="spacing" textLength="32" x="120.5" y="488.7832">build</text><polygon fill="#A80036" points="34.5,531.8359,24.5,535.8359,34.5,539.8359" style="stroke:#A80036;stroke-width:1.0;"/><line style="stroke:#A80036;stroke-width:1.0;stroke-dasharray:2.0,2.0;" x1="28.5" x2="112.5" y1="535.8359" y2="535.8359"/><text fill="#000000" font-family="sans-serif" font-size="13" lengthAdjust="spacing" textLength="31" x="40.5" y="531.0938">done</text><!--MD5=[adbc65d883c4ed16f87d995eb30619dd]
@startuml
actor User
skinparam style strictuml
User -> Maven : mvn verify
Maven -> Maven : read .mvn/extensions.xml
Maven -> "Jamal Maven Extension" : LOAD
Maven -> "Jamal Maven Extension" : get pom structure
"Jamal Maven Extension" -> Jamal : process pom.xml.jam
"Jamal Maven Extension" <- - Jamal : result
"Jamal Maven Extension" -> "Jamal Maven Extension" : save pom.xml
Maven <- "Jamal Maven Extension" : pom.xml file
Maven -> "Jamal Maven Extension" : get pom structure
"Jamal Maven Extension" -> "Maven Plaform Reader" : read the pom.xml
"Jamal Maven Extension" <- - "Maven Plaform Reader" : pom structure
Maven <- - "Jamal Maven Extension" : pom structure
Maven -> Maven : build
User <- - Maven : done
@enduml

PlantUML version 1.2021.01(Tue Feb 02 08:55:08 CET 2021)
(GPL source distribution)
Java Runtime: OpenJDK Runtime Environment
JVM: OpenJDK 64-Bit Server VM
Default Encoding: UTF-8
Language: en
Country: GB
--></g></svg>