<?xml version="1.0" encoding="UTF-8" standalone="no"?>
<svg xmlns="http://www.w3.org/2000/svg" contentScriptType="application/ecmascript" contentStyleType="text/css"
     height="693px" preserveAspectRatio="none" style="width:713px;height:693px;background:#FFFFFF;" version="1.1"
     viewBox="0 0 713 693" width="713px" zoomAndPan="magnify"><defs/><g><rect fill="#FFFFFF" height="118.2422" style="stroke:#000000;stroke-width:2.0;" width="342" x="198" y="332.6621"/><line style="stroke:#A80036;stroke-width:1.0;stroke-dasharray:5.0,5.0;" x1="23" x2="23" y1="84.4883" y2="686.0781"/><line style="stroke:#A80036;stroke-width:1.0;stroke-dasharray:5.0,5.0;" x1="113.5" x2="113.5" y1="84.4883" y2="686.0781"/><line style="stroke:#A80036;stroke-width:1.0;stroke-dasharray:5.0,5.0;" x1="293" x2="293" y1="84.4883" y2="686.0781"/><line style="stroke:#A80036;stroke-width:1.0;stroke-dasharray:5.0,5.0;" x1="504" x2="504" y1="84.4883" y2="686.0781"/><line style="stroke:#A80036;stroke-width:1.0;stroke-dasharray:5.0,5.0;" x1="623" x2="623" y1="84.4883" y2="686.0781"/><text fill="#000000" font-family="sans-serif" font-size="14" lengthAdjust="spacing" textLength="31" x="5" y="81.5352">User</text><ellipse cx="23.5" cy="15" fill="#FEFECE" rx="8" ry="8" style="stroke:#A80036;stroke-width:2.0;"/><path d="M23.5,23 L23.5,50 M10.5,31 L36.5,31 M23.5,50 L10.5,65 M23.5,50 L36.5,65 " fill="none" style="stroke:#A80036;stroke-width:2.0;"/><rect fill="#FEFECE" height="30.4883" style="stroke:#A80036;stroke-width:1.5;" width="58" x="84.5" y="53"/><text fill="#000000" font-family="sans-serif" font-size="14" lengthAdjust="spacing" textLength="44" x="91.5" y="73.5352">Maven</text><rect fill="#FEFECE" height="30.4883" style="stroke:#A80036;stroke-width:1.5;" width="171" x="208" y="53"/><text fill="#000000" font-family="sans-serif" font-size="14" lengthAdjust="spacing" textLength="157" x="215" y="73.5352">Jamal Maven Extension</text><rect fill="#FEFECE" height="30.4883" style="stroke:#A80036;stroke-width:1.5;" width="51" x="479" y="53"/><text fill="#000000" font-family="sans-serif" font-size="14" lengthAdjust="spacing" textLength="37" x="486" y="73.5352">Jamal</text><rect fill="#FEFECE" height="30.4883" style="stroke:#A80036;stroke-width:1.5;" width="167" x="540" y="53"/><text fill="#000000" font-family="sans-serif" font-size="14" lengthAdjust="spacing" textLength="153" x="547" y="73.5352">Maven Plaform Reader</text><polygon fill="#A80036" points="101.5,111.7988,111.5,115.7988,101.5,119.7988" style="stroke:#A80036;stroke-width:1.0;"/><line style="stroke:#A80036;stroke-width:1.0;" x1="23.5" x2="107.5" y1="115.7988" y2="115.7988"/><text fill="#000000" font-family="sans-serif" font-size="13" lengthAdjust="spacing" textLength="66" x="30.5" y="111.0566">mvn verify</text><line style="stroke:#A80036;stroke-width:1.0;" x1="113.5" x2="155.5" y1="145.1094" y2="145.1094"/><line style="stroke:#A80036;stroke-width:1.0;" x1="155.5" x2="155.5" y1="145.1094" y2="158.1094"/><line style="stroke:#A80036;stroke-width:1.0;" x1="114.5" x2="155.5" y1="158.1094" y2="158.1094"/><polygon fill="#A80036" points="124.5,154.1094,114.5,158.1094,124.5,162.1094" style="stroke:#A80036;stroke-width:1.0;"/><text fill="#000000" font-family="sans-serif" font-size="13" lengthAdjust="spacing" textLength="166" x="120.5" y="140.3672">read .mvn/extensions.xml</text><polygon fill="#A80036" points="281.5,183.4199,291.5,187.4199,281.5,191.4199" style="stroke:#A80036;stroke-width:1.0;"/><line style="stroke:#A80036;stroke-width:1.0;" x1="113.5" x2="287.5" y1="187.4199" y2="187.4199"/><text fill="#000000" font-family="sans-serif" font-size="13" lengthAdjust="spacing" textLength="36" x="120.5" y="182.6777">LOAD</text><polygon fill="#A80036" points="281.5,212.7305,291.5,216.7305,281.5,220.7305" style="stroke:#A80036;stroke-width:1.0;"/><line style="stroke:#A80036;stroke-width:1.0;" x1="113.5" x2="287.5" y1="216.7305" y2="216.7305"/><text fill="#000000" font-family="sans-serif" font-size="13" lengthAdjust="spacing" textLength="113" x="120.5" y="211.9883">get pom structure</text><polygon fill="#A80036" points="492.5,242.041,502.5,246.041,492.5,250.041" style="stroke:#A80036;stroke-width:1.0;"/><line style="stroke:#A80036;stroke-width:1.0;" x1="293.5" x2="498.5" y1="246.041" y2="246.041"/><text fill="#000000" font-family="sans-serif" font-size="13" lengthAdjust="spacing" textLength="108" x="300.5" y="241.2988">process pom.jam</text><polygon fill="#A80036" points="304.5,271.3516,294.5,275.3516,304.5,279.3516" style="stroke:#A80036;stroke-width:1.0;"/><line style="stroke:#A80036;stroke-width:1.0;stroke-dasharray:2.0,2.0;" x1="298.5" x2="503.5" y1="275.3516" y2="275.3516"/><text fill="#000000" font-family="sans-serif" font-size="13" lengthAdjust="spacing" textLength="36" x="310.5" y="270.6094">result</text><line style="stroke:#A80036;stroke-width:1.0;" x1="293.5" x2="335.5" y1="304.6621" y2="304.6621"/><line style="stroke:#A80036;stroke-width:1.0;" x1="335.5" x2="335.5" y1="304.6621" y2="317.6621"/><line style="stroke:#A80036;stroke-width:1.0;" x1="294.5" x2="335.5" y1="317.6621" y2="317.6621"/><polygon fill="#A80036" points="304.5,313.6621,294.5,317.6621,304.5,321.6621" style="stroke:#A80036;stroke-width:1.0;"/><text fill="#000000" font-family="sans-serif" font-size="13" lengthAdjust="spacing" textLength="88" x="300.5" y="299.9199">save pom.xml</text><path d="M198,332.6621 L260,332.6621 L260,339.6621 L250,349.6621 L198,349.6621 L198,332.6621 " fill="#EEEEEE" style="stroke:#000000;stroke-width:1.0;"/><rect fill="none" height="118.2422" style="stroke:#000000;stroke-width:2.0;" width="342" x="198" y="332.6621"/><text fill="#000000" font-family="sans-serif" font-size="13" font-weight="bold" lengthAdjust="spacing" textLength="17" x="213" y="346.2305">alt</text><text fill="#000000" font-family="sans-serif" font-size="11" font-weight="bold" lengthAdjust="spacing" textLength="72" x="275" y="345.2969">[.mvn exists]</text><polygon fill="#A80036" points="492.5,367.2832,502.5,371.2832,492.5,375.2832" style="stroke:#A80036;stroke-width:1.0;"/><line style="stroke:#A80036;stroke-width:1.0;" x1="293.5" x2="498.5" y1="371.2832" y2="371.2832"/><text fill="#000000" font-family="sans-serif" font-size="13" lengthAdjust="spacing" textLength="187" x="300.5" y="366.541">process .mvn/extensions.jam</text><polygon fill="#A80036" points="304.5,396.5938,294.5,400.5938,304.5,404.5938" style="stroke:#A80036;stroke-width:1.0;"/><line style="stroke:#A80036;stroke-width:1.0;stroke-dasharray:2.0,2.0;" x1="298.5" x2="503.5" y1="400.5938" y2="400.5938"/><text fill="#000000" font-family="sans-serif" font-size="13" lengthAdjust="spacing" textLength="36" x="310.5" y="395.8516">result</text><line style="stroke:#A80036;stroke-width:1.0;" x1="293.5" x2="335.5" y1="429.9043" y2="429.9043"/><line style="stroke:#A80036;stroke-width:1.0;" x1="335.5" x2="335.5" y1="429.9043" y2="442.9043"/><line style="stroke:#A80036;stroke-width:1.0;" x1="294.5" x2="335.5" y1="442.9043" y2="442.9043"/><polygon fill="#A80036" points="304.5,438.9043,294.5,442.9043,304.5,446.9043" style="stroke:#A80036;stroke-width:1.0;"/><text fill="#000000" font-family="sans-serif" font-size="13" lengthAdjust="spacing" textLength="182" x="300.5" y="425.1621">update .mvn/extensions.xml</text><polygon fill="#A80036" points="124.5,475.2148,114.5,479.2148,124.5,483.2148" style="stroke:#A80036;stroke-width:1.0;"/><line style="stroke:#A80036;stroke-width:1.0;" x1="118.5" x2="292.5" y1="479.2148" y2="479.2148"/><text fill="#000000" font-family="sans-serif" font-size="13" lengthAdjust="spacing" textLength="80" x="130.5" y="474.4727">pom.xml file</text><polygon fill="#A80036" points="281.5,504.5254,291.5,508.5254,281.5,512.5254" style="stroke:#A80036;stroke-width:1.0;"/><line style="stroke:#A80036;stroke-width:1.0;" x1="113.5" x2="287.5" y1="508.5254" y2="508.5254"/><text fill="#000000" font-family="sans-serif" font-size="13" lengthAdjust="spacing" textLength="113" x="120.5" y="503.7832">get pom structure</text><polygon fill="#A80036" points="611.5,533.8359,621.5,537.8359,611.5,541.8359" style="stroke:#A80036;stroke-width:1.0;"/><line style="stroke:#A80036;stroke-width:1.0;" x1="293.5" x2="617.5" y1="537.8359" y2="537.8359"/><text fill="#000000" font-family="sans-serif" font-size="13" lengthAdjust="spacing" textLength="111" x="300.5" y="533.0938">read the pom.xml</text><polygon fill="#A80036" points="304.5,563.1465,294.5,567.1465,304.5,571.1465" style="stroke:#A80036;stroke-width:1.0;"/><line style="stroke:#A80036;stroke-width:1.0;stroke-dasharray:2.0,2.0;" x1="298.5" x2="622.5" y1="567.1465" y2="567.1465"/><text fill="#000000" font-family="sans-serif" font-size="13" lengthAdjust="spacing" textLength="89" x="310.5" y="562.4043">pom structure</text><polygon fill="#A80036" points="124.5,592.457,114.5,596.457,124.5,600.457" style="stroke:#A80036;stroke-width:1.0;"/><line style="stroke:#A80036;stroke-width:1.0;stroke-dasharray:2.0,2.0;" x1="118.5" x2="292.5" y1="596.457" y2="596.457"/><text fill="#000000" font-family="sans-serif" font-size="13" lengthAdjust="spacing" textLength="89" x="130.5" y="591.7148">pom structure</text><line style="stroke:#A80036;stroke-width:1.0;" x1="113.5" x2="155.5" y1="625.7676" y2="625.7676"/><line style="stroke:#A80036;stroke-width:1.0;" x1="155.5" x2="155.5" y1="625.7676" y2="638.7676"/><line style="stroke:#A80036;stroke-width:1.0;" x1="114.5" x2="155.5" y1="638.7676" y2="638.7676"/><polygon fill="#A80036" points="124.5,634.7676,114.5,638.7676,124.5,642.7676" style="stroke:#A80036;stroke-width:1.0;"/><text fill="#000000" font-family="sans-serif" font-size="13" lengthAdjust="spacing" textLength="32" x="120.5" y="621.0254">build</text><polygon fill="#A80036" points="34.5,664.0781,24.5,668.0781,34.5,672.0781" style="stroke:#A80036;stroke-width:1.0;"/><line style="stroke:#A80036;stroke-width:1.0;stroke-dasharray:2.0,2.0;" x1="28.5" x2="112.5" y1="668.0781" y2="668.0781"/><text fill="#000000" font-family="sans-serif" font-size="13" lengthAdjust="spacing" textLength="31" x="40.5" y="663.3359">done</text><!--MD5=[3f084ecc219881971685363bcfee519f]
@startuml
actor User
skinparam style strictuml
User -> Maven : mvn verify
Maven -> Maven : read .mvn/extensions.xml
Maven -> "Jamal Maven Extension" : LOAD
Maven -> "Jamal Maven Extension" : get pom structure
"Jamal Maven Extension" -> Jamal : process pom.jam
"Jamal Maven Extension" <- - Jamal : result
"Jamal Maven Extension" -> "Jamal Maven Extension" : save pom.xml
alt .mvn exists
  "Jamal Maven Extension" -> Jamal : process .mvn/extensions.jam
  "Jamal Maven Extension" <- - Jamal : result
  "Jamal Maven Extension" -> "Jamal Maven Extension" : update .mvn/extensions.xml
end
Maven <- "Jamal Maven Extension" : pom.xml file
Maven -> "Jamal Maven Extension" : get pom structure
"Jamal Maven Extension" -> "Maven Plaform Reader" : read the pom.xml
"Jamal Maven Extension" <- - "Maven Plaform Reader" : pom structure
Maven <- - "Jamal Maven Extension" : pom structure
Maven -> Maven : build
User <- - Maven : done
@enduml

PlantUML version 1.2021.9(Sun Jul 25 12:13:56 CEST 2021)
(GPL source distribution)
Java Runtime: OpenJDK Runtime Environment
JVM: OpenJDK 64-Bit Server VM
Default Encoding: UTF-8
Language: en
Country: GB
--></g></svg>