<?xml version="1.0" encoding="UTF-8" standalone="no"?>
<!DOCTYPE svg PUBLIC "-//W3C//DTD SVG 1.1//EN" "http://www.w3.org/Graphics/SVG/1.1/DTD/svg11.dtd">
<svg xmlns="http://www.w3.org/2000/svg" version="1.1" viewBox="-932 -54 1115 204" width="1115" height="204">
  <defs>
    <marker orient="auto" overflow="visible" markerUnits="strokeWidth" id="FilledArrow_Marker" stroke-linejoin="miter" stroke-miterlimit="10" viewBox="-1 -4 10 8" markerWidth="10" markerHeight="8" color="black">
      <g>
        <path d="M 8 0 L 0 -3 L 0 3 Z" fill="currentColor" stroke="currentColor" stroke-width="1"/>
      </g>
    </marker>
  </defs>
  <g id="Canvas_3" fill-opacity="1" stroke-dasharray="none" fill="none" stroke="none" stroke-opacity="1">
    <title>Canvas 3</title>
    <rect fill="white" x="-932" y="-54" width="1115" height="204"/>
    <g id="Canvas_3_Layer_1">
      <title>Layer 1</title>
      <g id="Graphic_2">
        <path d="M -605.1152 39.34088 L -334.06836 39.34088 C -323.8511 39.34088 -315.56836 47.623613 -315.56836 57.84088 L -315.56836 57.84088 C -315.56836 68.05815 -323.8511 76.34088 -334.06836 76.34088 L -605.1152 76.34088 C -615.3325 76.34088 -623.6152 68.05815 -623.6152 57.84088 L -623.6152 57.84088 C -623.6152 47.623613 -615.3325 39.34088 -605.1152 39.34088 Z" stroke="black" stroke-linecap="round" stroke-linejoin="round" stroke-width="4"/>
        <text transform="translate(-613.6152 44.34088)" fill="black">
          <tspan font-family="Andale Mono" font-size="24" fill="black" x="0" y="22">Document Source Code</tspan>
        </text>
      </g>
      <g id="Graphic_3">
        <path d="M -911.3039 110.68176 L -669.06176 110.68176 C -658.8445 110.68176 -650.56176 118.9645 -650.56176 129.18176 L -650.56176 129.18176 C -650.56176 139.39903 -658.8445 147.68176 -669.06176 147.68176 L -911.3039 147.68176 C -921.5212 147.68176 -929.8039 139.39903 -929.8039 129.18176 L -929.8039 129.18176 C -929.8039 118.9645 -921.5212 110.68176 -911.3039 110.68176 Z" stroke="black" stroke-linecap="round" stroke-linejoin="round" stroke-width="4"/>
        <text transform="translate(-919.8039 115.68176)" fill="black">
          <tspan font-family="Andale Mono" font-size="24" fill="black" x="0" y="22">System to Document</tspan>
        </text>
      </g>
      <g id="Graphic_4">
        <path d="M -853.6946 -32 L -669.06176 -32 C -658.8445 -32 -650.56176 -23.717268 -650.56176 -13.5 L -650.56176 -13.5 C -650.56176 -3.282732 -658.8445 5 -669.06176 5 L -853.6946 5 C -863.9118 5 -872.1946 -3.282732 -872.1946 -13.5 L -872.1946 -13.5 C -872.1946 -23.717268 -863.9118 -32 -853.6946 -32 Z" stroke="black" stroke-linecap="round" stroke-linejoin="round" stroke-width="4"/>
        <text transform="translate(-862.1946 -27)" fill="black">
          <tspan font-family="Andale Mono" font-size="24" fill="black" x="0" y="22">Documentarians</tspan>
        </text>
      </g>
      <g id="Graphic_5">
        <path d="M 63.5 44.776 L 161.71875 44.776 C 171.93602 44.776 180.21875 53.05873 180.21875 63.276 L 180.21875 63.276 C 180.21875 73.49327 171.93602 81.776 161.71875 81.776 L 63.5 81.776 C 53.28273 81.776 45 73.49327 45 63.276 L 45 63.276 C 45 53.05873 53.28273 44.776 63.5 44.776 Z" stroke="black" stroke-linecap="round" stroke-linejoin="round" stroke-width="4"/>
        <text transform="translate(55 49.776)" fill="black">
          <tspan font-family="Andale Mono" font-size="24" fill="black" x="0" y="22">Document</tspan>
        </text>
      </g>
      <g id="Line_7">
        <path d="M -753.6556 108.68176 C -731.4949 98.31322 -699.0893 85.92951 -656 76.34088 C -647.8706 74.53186 -639.70315 72.898465 -631.5695 71.42375" marker-end="url(#FilledArrow_Marker)" stroke="black" stroke-linecap="round" stroke-linejoin="round" stroke-width="1"/>
      </g>
      <g id="Line_8">
        <line x1="-677.53254" y1="7" x2="-563.05415" y2="34.98962" marker-end="url(#FilledArrow_Marker)" stroke="black" stroke-linecap="round" stroke-linejoin="round" stroke-width="1"/>
      </g>
      <g id="Line_9">
        <line x1="-313.72793" y1="60.41115" x2="-253.89865" y2="61.39776" marker-end="url(#FilledArrow_Marker)" stroke="black" stroke-linecap="round" stroke-linejoin="round" stroke-width="1"/>
      </g>
      <g id="Graphic_11">
        <text transform="translate(-713.768 61)" fill="black">
          <tspan font-family="Helvetica Neue" font-size="16" fill="black" x="0" y="15">data</tspan>
        </text>
      </g>
      <g id="Graphic_13">
        <path d="M -180.8 27.276 L -99.2 27.276 L -38 48.876 L -38 77.676 L -99.2 99.276 L -180.8 99.276 L -242 77.676 L -242 48.876 Z" stroke="black" stroke-linecap="round" stroke-linejoin="round" stroke-width="4"/>
        <text transform="translate(-237 49.776)" fill="black">
          <tspan font-family="Andale Mono" font-size="24" fill="black" x="46.591797" y="22">Process</tspan>
        </text>
      </g>
      <g id="Line_15">
        <line x1="-36" y1="63.276" x2="33.1" y2="63.276" marker-end="url(#FilledArrow_Marker)" stroke="black" stroke-linecap="round" stroke-linejoin="round" stroke-width="1"/>
      </g>
      <g id="Graphic_16">
        <text transform="translate(-632.2489 -48.05356)" fill="black">
          <tspan font-family="Helvetica Neue" font-size="16" fill="black" x="7531753e-19" y="15">language,</tspan>
          <tspan font-family="Helvetica Neue" font-size="16" fill="black" x="3.256" y="33.448">structure</tspan>
        </text>
      </g>
      <g id="Graphic_17">
        <text transform="translate(-178.536 75.828)" fill="black">
          <tspan font-family="Helvetica Neue" font-size="16" fill="black" x="5684342e-20" y="15">automated</tspan>
        </text>
      </g>
    </g>
  </g>
</svg>
