<?xml version="1.0" encoding="UTF-8" standalone="no"?>
<!DOCTYPE svg PUBLIC "-//W3C//DTD SVG 1.1//EN" "http://www.w3.org/Graphics/SVG/1.1/DTD/svg11.dtd">
<svg version="1.1" xmlns:dc="http://purl.org/dc/elements/1.1/" xmlns="http://www.w3.org/2000/svg" xmlns:xl="http://www.w3.org/1999/xlink" viewBox="-414 264 888 41" width="888" height="41">
  <defs>
    <marker orient="auto" overflow="visible" markerUnits="strokeWidth" id="FilledArrow_Marker" stroke-linejoin="miter" stroke-miterlimit="10" viewBox="-1 -4 8 8" markerWidth="8" markerHeight="8" color="black">
      <g>
        <path d="M 5.4506667 0 L 0 -2.044 L 0 2.044 Z" fill="currentColor" stroke="currentColor" stroke-width="1"/>
      </g>
    </marker>
  </defs>
  <g id="Canvas_4" fill-opacity="1" stroke-dasharray="none" stroke="none" stroke-opacity="1" fill="none">
    <title>Canvas 4</title>
    <rect fill="white" x="-414" y="264" width="888" height="41"/>
    <g id="Canvas_4_Layer_1">
      <title>Layer 1</title>
      <g id="Graphic_6">
        <path d="M -393.5 266 L -252.07422 266 C -241.85695 266 -233.57422 274.28273 -233.57422 284.5 L -233.57422 284.5 C -233.57422 294.71727 -241.85695 303 -252.07422 303 L -393.5 303 C -403.71727 303 -412 294.71727 -412 284.5 L -412 284.5 C -412 274.28273 -403.71727 266 -393.5 266 Z" stroke="black" stroke-linecap="round" stroke-linejoin="round" stroke-width="4"/>
        <text transform="translate(-402 271)" fill="black">
          <tspan font-family="Andale Mono" font-size="24" fill="black" x="0" y="22">Requirement</tspan>
        </text>
      </g>
      <g id="Graphic_7">
        <path d="M -55.5 266 L 85.92578 266 C 96.14305 266 104.42578 274.28273 104.42578 284.5 L 104.42578 284.5 C 104.42578 294.71727 96.14305 303 85.92578 303 L -55.5 303 C -65.71727 303 -74 294.71727 -74 284.5 L -74 284.5 C -74 274.28273 -65.71727 266 -55.5 266 Z" stroke="black" stroke-linecap="round" stroke-linejoin="round" stroke-width="4"/>
        <text transform="translate(-64 271)" fill="black">
          <tspan font-family="Andale Mono" font-size="24" fill="black" x="0" y="22">Application</tspan>
        </text>
      </g>
      <g id="Graphic_8">
        <path d="M 282.5 266 L 452.73047 266 C 462.94774 266 471.23047 274.28273 471.23047 284.5 L 471.23047 284.5 C 471.23047 294.71727 462.94774 303 452.73047 303 L 282.5 303 C 272.28273 303 264 294.71727 264 284.5 L 264 284.5 C 264 274.28273 272.28273 266 282.5 266 Z" stroke="black" stroke-linecap="round" stroke-linejoin="round" stroke-width="4"/>
        <text transform="translate(274 271)" fill="black">
          <tspan font-family="Andale Mono" font-size="24" fill="black" x="0" y="22">Documentation</tspan>
        </text>
      </g>
      <g id="Line_9">
        <line x1="-231.57422" y1="284.5" x2="-97.052" y2="284.5" marker-end="url(#FilledArrow_Marker)" stroke="black" stroke-linecap="round" stroke-linejoin="round" stroke-width="3"/>
      </g>
      <g id="Line_10">
        <line x1="106.42578" y1="284.5" x2="240.948" y2="284.5" marker-end="url(#FilledArrow_Marker)" stroke="black" stroke-linecap="round" stroke-linejoin="round" stroke-width="3"/>
      </g>
    </g>
  </g>
</svg>
