<?xml version="1.0" encoding="UTF-8" standalone="no"?>
<svg xmlns="http://www.w3.org/2000/svg" contentScriptType="application/ecmascript" contentStyleType="text/css"
     height="383px" preserveAspectRatio="none" style="width:207px;height:383px;" version="1.1" viewBox="0 0 207 383"
     width="207px" zoomAndPan="magnify"><defs><filter height="300%" id="f1s3pig97gf75" width="300%" x="-1" y="-1"><feGaussianBlur result="blurOut" stdDeviation="2.0"/><feColorMatrix in="blurOut" result="blurOut2" type="matrix" values="0 0 0 0 0 0 0 0 0 0 0 0 0 0 0 0 0 0 .4 0"/><feOffset dx="4.0" dy="4.0" in="blurOut2" result="blurOut3"/><feBlend in="SourceGraphic" in2="blurOut3" mode="normal"/></filter></defs><g><text fill="#000000" font-family="sans-serif" font-size="18" lengthAdjust="spacing" textLength="148" x="23.1469" y="17.4023">Macro Evaluation</text><ellipse cx="122.2938" cy="37.1992" fill="#000000" filter="url(#f1s3pig97gf75)" rx="10" ry="10" style="stroke:none;stroke-width:1.0;"/><rect fill="#F8F8F8" filter="url(#f1s3pig97gf75)" height="34.1328" rx="12.5" ry="12.5" style="stroke:#383838;stroke-width:1.5;" width="121" x="62.0438" y="89.1992"/><text fill="#000000" font-family="sans-serif" font-size="12" lengthAdjust="spacing" textLength="101" x="72.0438" y="110.8008">Macro Start String</text><polygon fill="#F8F8F8" filter="url(#f1s3pig97gf75)" points="122.2938,165.1992,134.2938,177.1992,122.2938,189.1992,110.2938,177.1992,122.2938,165.1992" style="stroke:#383838;stroke-width:1.5;"/><rect fill="#F8F8F8" filter="url(#f1s3pig97gf75)" height="48.2656" rx="12.5" ry="12.5" style="stroke:#383838;stroke-width:1.5;" width="90" x="14.2938" y="245.1992"/><text fill="#000000" font-family="sans-serif" font-size="12" lengthAdjust="spacing" textLength="70" x="24.2938" y="266.8008">evaluate the</text><text fill="#000000" font-family="sans-serif" font-size="12" lengthAdjust="spacing" textLength="69" x="24.7938" y="280.9336">macro input</text><rect fill="#F8F8F8" filter="url(#f1s3pig97gf75)" height="34.1328" rx="12.5" ry="12.5" style="stroke:#383838;stroke-width:1.5;" width="154" x="39.2938" y="335.1992"/><text fill="#000000" font-family="sans-serif" font-size="12" lengthAdjust="spacing" textLength="134" x="49.2938" y="356.8008">evaluate built-in macro</text><!--MD5=[17b1ce5c467dc442f58cb811636a7cfa]
link start to Macro Start String--><path d="M122.2938,47.2352 C122.2938,56.6112 122.2938,71.6092 122.2938,84.0002 " fill="none" id="start-to-Macro Start String" style="stroke:#383838;stroke-width:1.0;"/><polygon fill="#383838" points="122.2938,89.1272,126.2938,80.1272,122.2938,84.1272,118.2938,80.1272,122.2938,89.1272" style="stroke:#383838;stroke-width:1.0;"/><!--MD5=[618266c0b8986141e2586d5bda0a0a15]
link Macro Start String to #5--><path d="M122.2938,123.2022 C122.2938,134.1502 122.2938,148.6272 122.2938,159.6832 " fill="none" id="Macro Start String-to-#5" style="stroke:#383838;stroke-width:1.0;"/><polygon fill="#383838" points="122.2938,164.8052,126.2938,155.8052,122.2938,159.8052,118.2938,155.8052,122.2938,164.8052" style="stroke:#383838;stroke-width:1.0;"/><text fill="#000000" font-family="sans-serif" font-size="11" lengthAdjust="spacing" textLength="93" x="9" y="154.9916"># or @ character?</text><!--MD5=[3419d5e123ad3133a1b8897de324b00a]
link #5 to evaluate the\nmacro input--><path d="M117.7628,184.6722 C109.6842,196.2132 92.354,220.9702 78.6471,240.5512 " fill="none" id="#5-to-evaluate the\nmacro input" style="stroke:#383838;stroke-width:1.0;"/><polygon fill="#383838" points="75.6049,244.8972,84.0428,239.8178,78.4721,240.801,77.4888,235.2302,75.6049,244.8972" style="stroke:#383838;stroke-width:1.0;"/><text fill="#000000" font-family="sans-serif" font-size="11" lengthAdjust="spacing" textLength="7" x="104.2938" y="221.334">#</text><!--MD5=[ed0f8b9f9224658b7dd14b09338ebfd2]
link evaluate the\nmacro input to evaluate built-in macro--><path d="M75.7806,293.6278 C84.0241,305.3422 93.9088,319.389 101.8508,330.6749 " fill="none" id="evaluate the\nmacro input-to-evaluate built-in macro" style="stroke:#383838;stroke-width:1.0;"/><polygon fill="#383838" points="104.9024,335.0114,102.9941,325.3492,102.0249,330.9224,96.4517,329.9532,104.9024,335.0114" style="stroke:#383838;stroke-width:1.0;"/><!--MD5=[3ca5afb36fe2972a41fb6c9a8fb4abf3]
link #5 to evaluate built-in macro--><path d="M121.9188,189.0212 C120.9448,217.0822 118.3268,292.5883 117.0348,329.8309 " fill="none" id="#5-to-evaluate built-in macro" style="stroke:#383838;stroke-width:1.0;"/><polygon fill="#383838" points="116.8548,335.0379,121.1645,326.1821,117.0282,330.0409,113.1693,325.9046,116.8548,335.0379" style="stroke:#383838;stroke-width:1.0;"/><text fill="#000000" font-family="sans-serif" font-size="11" lengthAdjust="spacing" textLength="9" x="123.2938" y="273.334">@</text><!--MD5=[aaa306121296559bfb57dc4016a35133]
@startuml

skinparam monochrome true

title Macro Evaluation

(*) - -> "Macro Start String"

if " # or @ character?" then
- ->[ #] "evaluate the\nmacro input"
- -> "evaluate built-in macro"
else
- ->[ @] "evaluate built-in macro"
endif

@enduml

PlantUML version 1.2021.01(Tue Feb 02 08:55:08 CET 2021)
(GPL source distribution)
Java Runtime: OpenJDK Runtime Environment
JVM: OpenJDK 64-Bit Server VM
Default Encoding: UTF-8
Language: en
Country: GB
--></g></svg>