<?xml version="1.0" encoding="UTF-8" standalone="no"?>
<svg xmlns="http://www.w3.org/2000/svg" contentScriptType="application/ecmascript" contentStyleType="text/css"
     height="369px" preserveAspectRatio="none" style="width:182px;height:369px;background:#FFFFFF;" version="1.1"
     viewBox="0 0 182 369" width="182px" zoomAndPan="magnify"><defs><filter height="300%" id="fr3ozuh90om8q" width="300%" x="-1" y="-1"><feGaussianBlur result="blurOut" stdDeviation="2.0"/><feColorMatrix in="blurOut" result="blurOut2" type="matrix" values="0 0 0 0 0 0 0 0 0 0 0 0 0 0 0 0 0 0 .4 0"/><feOffset dx="4.0" dy="4.0" in="blurOut2" result="blurOut3"/><feBlend in="SourceGraphic" in2="blurOut3" mode="normal"/></filter></defs><g><ellipse cx="88" cy="20" fill="#000000" filter="url(#fr3ozuh90om8q)" rx="10" ry="10" style="stroke:none;stroke-width:1.0;"/><rect fill="#FEFECE" filter="url(#fr3ozuh90om8q)" height="34.1328" rx="12.5" ry="12.5" style="stroke:#A80036;stroke-width:1.5;" width="117" x="29.5" y="71.2754"/><text fill="#000000" font-family="sans-serif" font-size="12" lengthAdjust="spacing" textLength="97" x="39.5" y="92.877">Jamal Processing</text><rect fill="#FEFECE" filter="url(#fr3ozuh90om8q)" height="34.1328" rx="12.5" ry="12.5" style="stroke:#A80036;stroke-width:1.5;" width="61" x="57.5" y="146.6836"/><text fill="#000000" font-family="sans-serif" font-size="12" lengthAdjust="spacing" textLength="37" x="71.5" y="168.2852">$input</text><rect fill="#FEFECE" filter="url(#fr3ozuh90om8q)" height="34.1328" rx="12.5" ry="12.5" style="stroke:#A80036;stroke-width:1.5;" width="154" x="11" y="200.8164"/><text fill="#000000" font-family="sans-serif" font-size="12" lengthAdjust="spacing" textLength="134" x="21" y="222.418">Defer macro evaluation</text><rect fill="#FEFECE" filter="url(#fr3ozuh90om8q)" height="34.1328" rx="12.5" ry="12.5" style="stroke:#A80036;stroke-width:1.5;" width="69" x="53.5" y="276.2246"/><text fill="#000000" font-family="sans-serif" font-size="12" lengthAdjust="spacing" textLength="45" x="67.5" y="297.8262">$output</text><ellipse cx="88" cy="341.3574" fill="#FFFFFF" filter="url(#fr3ozuh90om8q)" rx="11" ry="11" style="stroke:#000000;stroke-width:1.0;"/><ellipse cx="88" cy="341.3574" fill="#000000" rx="6" ry="6" style="stroke:#7F7F7F;stroke-width:1.0;"/><line style="stroke:#A80036;stroke-width:1.5;" x1="88" x2="88" y1="30" y2="71.2754"/><polygon fill="#A80036" points="84,61.2754,88,71.2754,92,61.2754,88,65.2754" style="stroke:#A80036;stroke-width:1.0;"/><text fill="#000000" font-family="sans-serif" font-size="11" lengthAdjust="spacing" textLength="28" x="92" y="51.4551">input</text><line style="stroke:#A80036;stroke-width:1.5;" x1="88" x2="88" y1="105.4082" y2="146.6836"/><polygon fill="#A80036" points="84,136.6836,88,146.6836,92,136.6836,88,140.6836" style="stroke:#A80036;stroke-width:1.0;"/><text fill="#000000" font-family="sans-serif" font-size="11" lengthAdjust="spacing" textLength="36" x="92" y="126.8633">output</text><line style="stroke:#A80036;stroke-width:1.5;" x1="88" x2="88" y1="180.8164" y2="200.8164"/><polygon fill="#A80036" points="84,190.8164,88,200.8164,92,190.8164,88,194.8164" style="stroke:#A80036;stroke-width:1.0;"/><line style="stroke:#A80036;stroke-width:1.5;" x1="88" x2="88" y1="234.9492" y2="276.2246"/><polygon fill="#A80036" points="84,266.2246,88,276.2246,92,266.2246,88,270.2246" style="stroke:#A80036;stroke-width:1.0;"/><text fill="#000000" font-family="sans-serif" font-size="11" lengthAdjust="spacing" textLength="36" x="92" y="256.4043">output</text><line style="stroke:#A80036;stroke-width:1.5;" x1="88" x2="88" y1="310.3574" y2="330.3574"/><polygon fill="#A80036" points="84,320.3574,88,330.3574,92,320.3574,88,324.3574" style="stroke:#A80036;stroke-width:1.0;"/><!--MD5=[0390e28282d7e1b0f9e4d177137fe5f4]
@startuml
start
-> input;
:Jamal Processing;
-> output;
: $input;
:Defer macro evaluation;
-> output;
: $output;
stop
@enduml

PlantUML version 1.2021.9(Sun Jul 25 12:13:56 CEST 2021)
(GPL source distribution)
Java Runtime: OpenJDK Runtime Environment
JVM: OpenJDK 64-Bit Server VM
Default Encoding: UTF-8
Language: en
Country: GB
--></g></svg>