<svg version="1.1" xmlns="http://www.w3.org/2000/svg" viewBox="0 0 87 87" width="87" height="87">
        <rect x="-7105427e-21" y="-7105427e-21" width="87" height="87" fill="#010101"/>
        <path d="M 42.5 71.097 L 9.808 71.097 L 9.808 76.557 L 42.5 76.557 Z M 8.443 22.807 L 10.848 20.532 C 11.498 21.312 12.148 21.767 12.993 21.767 C 13.903 21.767 14.553 21.117 14.553 19.882 L 14.553 11.302 L 18.323 11.302 L 18.323 19.947 C 18.323 21.637 17.867 22.872 16.957 23.781 C 16.047 24.691 14.812 25.146 13.253 25.146 C 10.848 25.081 9.418 24.106 8.443 22.806 Z M 19.947 11.237 L 30.93 11.237 L 30.93 14.423 L 23.715 14.423 L 23.715 16.503 L 30.215 16.503 L 30.215 19.492 L 23.715 19.492 L 23.715 21.637 L 30.995 21.637 L 30.995 24.821 L 19.945 24.821 L 19.945 11.239 Z M 36.26 14.553 L 32.166 14.553 L 32.166 11.238 L 44.06 11.238 L 44.06 14.552 L 40.03 14.552 L 40.03 24.822 L 36.26 24.822 L 36.26 14.552 Z M 9.938 30.215 L 16.372 30.215 C 18.062 30.215 19.297 30.67 20.077 31.45 C 20.597 32.035 20.922 32.75 20.922 33.66 L 20.922 33.725 C 20.922 35.285 20.012 36.259 18.842 36.779 C 20.467 37.299 21.572 38.274 21.572 40.094 L 21.572 40.159 C 21.572 42.499 19.687 43.929 16.437 43.929 L 10.003 43.929 L 10.003 30.216 L 9.938 30.216 Z M 17.218 34.375 C 17.218 33.595 16.632 33.205 15.528 33.205 L 13.642 33.205 L 13.642 35.61 L 15.462 35.61 C 16.567 35.61 17.217 35.22 17.217 34.375 Z M 15.918 38.274 L 13.578 38.274 L 13.578 40.809 L 15.918 40.809 C 17.088 40.809 17.738 40.354 17.738 39.574 L 17.738 39.509 C 17.802 38.729 17.218 38.274 15.918 38.274 Z M 22.742 30.215 L 28.786 30.215 C 30.866 30.215 32.296 30.735 33.206 31.645 C 33.986 32.425 34.441 33.465 34.441 34.83 L 34.441 34.895 C 34.441 36.974 33.336 38.339 31.646 39.119 L 34.896 43.864 L 30.54 43.864 L 27.81 39.769 L 26.575 39.769 L 26.575 43.864 L 22.805 43.864 L 22.805 30.216 L 22.741 30.216 Z M 28.656 36.714 C 29.891 36.714 30.671 36.065 30.671 35.09 L 30.671 35.025 C 30.671 33.92 29.891 33.4 28.656 33.4 L 26.576 33.4 L 26.576 36.714 Z" fill="white"/>
        <path d="M 39.64 30.086 L 43.28 30.086 L 49.064 43.8 L 45.035 43.8 L 44.06 41.33 L 38.795 41.33 L 37.82 43.8 L 33.92 43.8 L 39.64 30.086 Z M 42.955 38.405 L 41.46 34.57 L 39.9 38.405 Z M 53.419 30.151 L 49.649 30.151 L 49.649 43.735 L 53.419 43.735 Z M 54.849 30.151 L 58.358 30.151 L 63.298 37.365 L 63.298 30.151 L 67.002 30.151 L 67.002 43.735 L 63.688 43.735 L 58.618 36.325 L 58.618 43.735 L 54.849 43.735 L 54.849 30.151 Z M 67.652 41.72 L 69.732 39.185 C 71.097 40.225 72.592 40.81 74.152 40.81 C 75.192 40.81 75.712 40.485 75.712 39.9 L 75.712 39.835 C 75.712 39.25 75.257 38.99 73.372 38.535 C 70.447 37.885 68.237 37.04 68.237 34.311 L 68.237 34.246 C 68.237 31.711 70.252 29.891 73.502 29.891 C 75.842 29.891 77.596 30.541 79.091 31.711 L 77.206 34.376 C 75.972 33.466 74.607 33.011 73.372 33.011 C 72.462 33.011 72.007 33.401 72.007 33.856 L 72.007 33.921 C 72.007 34.571 72.462 34.831 74.347 35.221 C 77.466 35.871 79.416 36.91 79.416 39.445 L 79.416 39.51 C 79.416 42.305 77.206 43.93 73.892 43.93 C 71.617 43.995 69.342 43.215 67.652 41.72 Z" fill="white"/>
</svg>
