<?xml version="1.0" encoding="UTF-8" standalone="no"?>
<!DOCTYPE svg PUBLIC "-//W3C//DTD SVG 1.1//EN" "http://www.w3.org/Graphics/SVG/1.1/DTD/svg11.dtd">
<svg xmlns:dc="http://purl.org/dc/elements/1.1/" version="1.1" xmlns="http://www.w3.org/2000/svg" xmlns:xl="http://www.w3.org/1999/xlink" viewBox="241 4 1002 1002" width="1002" height="1002">
  <defs/>
  <g id="logo" stroke="none" stroke-opacity="1" fill="none" stroke-dasharray="none" fill-opacity="1">
    <title>logo</title>
    <g id="logo_Layer_1">
      <title>Layer 1</title>
      <g id="Graphic_2">
        <path d="M 592 5 L 892 5 C 992 5 1042 5 1102 25 C 1152 45 1202 95 1222 145 C 1242 205 1242 255 1242 355 L 1242 655 C 1242 755 1242 805 1222 865 C 1202 915 1152 965 1102 985 C 1042 1005 992 1005 892 1005 L 592 1005 C 492 1005 442 1005 382 985 C 332 965 282 915 262 865 C 242 805 242 755 242 655 L 242 355 C 242 255 242 205 262 145 C 282 95 332 45 382 25 C 442 5 492 5 592 5 M 592 5" fill="#ff4c41"/>
        <path d="M 592 5 L 892 5 C 992 5 1042 5 1102 25 C 1152 45 1202 95 1222 145 C 1242 205 1242 255 1242 355 L 1242 655 C 1242 755 1242 805 1222 865 C 1202 915 1152 965 1102 985 C 1042 1005 992 1005 892 1005 L 592 1005 C 492 1005 442 1005 382 985 C 332 965 282 915 262 865 C 242 805 242 755 242 655 L 242 355 C 242 255 242 205 262 145 C 282 95 332 45 382 25 C 442 5 492 5 592 5 M 592 5" stroke="#f33" stroke-linecap="round" stroke-linejoin="round" stroke-width="1"/>
      </g>
      <g id="Graphic_28">
        <title>}</title>
        <path d="M 966.9 763.3772 L 966.9 847.5 L 1043.1 847.5 C 1049.9 847.5 1057.6 845.3719 1066.2 841.1157 C 1074.8 836.8594 1082.8 830.6004 1090.2 822.3383 C 1097.6 814.0762 1103.9 803.5609 1109.1 790.7922 C 1114.3 778.0235 1116.9 763.1269 1116.9 746.102 L 1116.9 600.38925 C 1116.9 588.8724 1118.9 579.1082 1122.9 571.0965 C 1126.9 563.08476 1131.7 556.7005 1137.3 551.9435 C 1142.9 547.18656 1148.9 543.6815 1155.3 541.4282 C 1161.7 539.1749 1167.3 538.04825 1172.1 538.04825 L 1172.1 472.70285 C 1167.3 472.70285 1161.7 471.5762 1155.3 469.3229 C 1148.9 467.0696 1142.9 463.31417 1137.3 458.05647 C 1131.7 452.79877 1126.9 445.7886 1122.9 437.02577 C 1118.9 428.26293 1116.9 417.6225 1116.9 405.10417 L 1116.9 263.89803 C 1116.9 246.8731 1114.3 231.9765 1109.1 219.20779 C 1103.9 206.43908 1097.6 195.92384 1090.2 187.66173 C 1082.8 179.39963 1074.8 173.14055 1066.2 168.88432 C 1057.6 164.62809 1049.9 162.5 1043.1 162.5 L 966.9 162.5 L 966.9 246.6228 L 999.3 246.6228 C 1006.5 246.6228 1012.2 248.37535 1016.4 251.88048 C 1020.6 255.38562 1023.9 259.76697 1026.3 265.02467 C 1028.7 270.28237 1030.2 276.1659 1030.8 282.67544 C 1031.4 289.18497 1031.7 295.44405 1031.7 301.45285 L 1031.7 415.6195 C 1031.7 434.14666 1034 449.04326 1038.6 460.30976 C 1043.2 471.57626 1048.6 480.33897 1054.8 486.59814 C 1061 492.8573 1067.5 497.23866 1074.3 499.7423 C 1081.1 502.246 1086.7 503.7482 1091.1 504.2489 L 1091.1 506.5022 C 1086.7 507.0029 1081.1 508.6303 1074.3 511.3843 C 1067.5 514.13835 1061 518.6449 1054.8 524.90406 C 1048.6 531.1632 1043.2 539.4252 1038.6 549.69024 C 1034 559.9553 1031.7 573.09934 1031.7 589.1228 L 1031.7 709.29825 C 1031.7 714.8063 1031.4 720.815 1030.8 727.3246 C 1030.2 733.8341 1028.7 739.7176 1026.3 744.9753 C 1023.9 750.233 1020.6 754.6144 1016.4 758.1195 C 1012.2 761.62465 1006.5 763.3772 999.3 763.3772 Z" fill="white"/>
      </g>
      <g id="Graphic_29">
        <title>{</title>
        <path d="M 516.5 246.6228 L 516.5 162.5 L 440.3 162.5 C 433.49997 162.5 425.80004 164.62809 417.2 168.88432 C 408.59996 173.14055 400.60004 179.39963 393.2 187.66173 C 385.79996 195.92384 379.50003 206.43908 374.3 219.20779 C 369.09997 231.9765 366.5 246.8731 366.5 263.89803 L 366.5 405.10417 C 366.5 417.6225 364.5 428.26293 360.5 437.02577 C 356.5 445.7886 351.70003 452.79877 346.1 458.05647 C 340.49997 463.31417 334.50003 467.0696 328.1 469.3229 C 321.69997 471.5762 316.30002 472.70285 311.9 472.70285 L 311.9 538.04825 C 316.30002 538.04825 321.69997 539.1749 328.1 541.4282 C 334.50003 543.6815 340.49997 547.18656 346.1 551.9435 C 351.70003 556.7005 356.5 563.08476 360.5 571.0965 C 364.5 579.1082 366.5 588.8724 366.5 600.38925 L 366.5 746.102 C 366.5 763.1269 369.09997 778.0235 374.3 790.7922 C 379.50003 803.5609 385.79996 814.0762 393.2 822.3383 C 400.60004 830.6004 408.59996 836.8594 417.2 841.1157 C 425.80004 845.3719 433.49997 847.5 440.3 847.5 L 516.5 847.5 L 516.5 763.3772 L 484.1 763.3772 C 476.89996 763.3772 471.2 761.62465 467 758.1195 C 462.8 754.6144 459.5 750.233 457.1 744.9753 C 454.7 739.7176 453.2 733.8341 452.6 727.3246 C 452 720.815 451.7 714.8063 451.7 709.29825 L 451.7 589.1228 C 451.7 573.09934 449.4 559.9553 444.8 549.69024 C 440.2 539.4252 434.80003 531.1632 428.6 524.90406 C 422.39997 518.6449 415.90003 514.13835 409.1 511.3843 C 402.29997 508.6303 396.7 507.0029 392.3 506.5022 L 392.3 504.2489 C 396.7 503.7482 402.29997 502.246 409.1 499.7423 C 415.90003 497.23866 422.39997 492.8573 428.6 486.59814 C 434.80003 480.33897 440.2 471.57626 444.8 460.30976 C 449.4 449.04326 451.7 434.14666 451.7 415.6195 L 451.7 301.45285 C 451.7 295.44405 452 289.18497 452.6 282.67544 C 453.2 276.1659 454.7 270.28237 457.1 265.02467 C 459.5 259.76697 462.8 255.38562 467 251.88048 C 471.2 248.37535 476.89996 246.6228 484.1 246.6228 Z" fill="white"/>
      </g>
      <g id="Graphic_48">
        <title>m</title>
        <path d="M 591.3 503.2 L 591.3 710 L 625.3 710 L 625.3 581.2 C 625.3 577.2 626.3 572.2 628.3 566.2 C 630.3 560.2 633.5 554.4 637.9 548.8 C 642.3 543.2 648.0333 538.4 655.1 534.4 C 662.1667 530.4 670.6333 528.4 680.5 528.4 C 688.2334 528.4 694.56665 529.5333 699.5 531.8 C 704.4334 534.0667 708.3667 537.26665 711.3 541.4 C 714.23335 545.53335 716.3 550.4 717.5 556 C 718.7 561.6 719.3 567.7333 719.3 574.4 L 719.3 710 L 753.3 710 L 753.3 581.2 C 753.3 565.1999 758.1 552.40005 767.7 542.8 C 777.3001 533.19995 790.4999 528.4 807.3 528.4 C 815.5667 528.4 822.3 529.6 827.5 532 C 832.7 534.4 836.7667 537.66665 839.7 541.8 C 842.6334 545.93335 844.6333 550.8 845.7 556.4 C 846.7667 562 847.3 568 847.3 574.4 L 847.3 710 L 881.3 710 L 881.3 558.4 C 881.3 547.7333 879.6334 538.60004 876.3 531 C 872.9667 523.39996 868.3 517.2 862.3 512.4 C 856.3 507.6 849.1 504.0667 840.7 501.8 C 832.3 499.5333 822.9001 498.4 812.5 498.4 C 798.8999 498.4 786.4334 501.46664 775.1 507.6 C 763.7666 513.73336 754.6334 522.39994 747.7 533.6 C 743.4333 520.79994 736.1001 511.73336 725.7 506.4 C 715.29995 501.06664 703.7001 498.4 690.9 498.4 C 661.8332 498.4 639.56675 510.1332 624.1 533.6 L 623.3 533.6 L 623.3 503.2 Z" fill="black"/>
      </g>
    </g>
  </g>
</svg>
